<svg width="150" height="29" viewBox="0 0 150 29" fill="none" xmlns="http://www.w3.org/2000/svg">
<path d="M10.3516 5.01125C7.87513 5.01125 5.25009 6.31974 4.28427 8.07368C4.18521 8.26856 4.03662 8.35208 3.83851 8.35208C3.44227 8.35208 3.21939 8.10151 3.21939 7.76743V0H0V26.9772H3.21939V24.8335C3.21939 24.4994 3.44227 24.221 3.73945 24.221C4.03662 24.221 4.18521 24.3324 4.28427 24.4994C5.25009 26.2534 7.87513 27.5897 10.3516 27.5897C15.1559 27.5897 20.2574 23.6085 20.2574 16.2587C20.2822 8.96456 15.1807 5.01125 10.3516 5.01125ZM16.7904 16.2866C16.7904 20.7967 13.8434 24.221 10.0049 24.221C6.14161 24.221 3.21939 20.7967 3.21939 16.2866C3.21939 11.7764 6.11685 8.37992 10.0049 8.37992C13.8434 8.37992 16.7904 11.7764 16.7904 16.2866ZM48.489 13.4469V27.0051H45.2696V13.5025C45.2696 10.3287 43.338 8.65832 41.4311 8.65832C38.8061 8.65832 37.2954 10.6628 37.2954 14.1429V27.0051H34.076V14.1429C34.076 10.635 32.5654 8.65832 29.9404 8.65832C28.0087 8.65832 26.0771 10.3287 26.0771 13.5025V27.0051H22.8577V13.4469C22.8577 7.65608 26.3743 5.01125 29.6679 5.01125C32.3178 5.01125 34.4227 6.40326 35.1657 8.60264C35.24 8.8532 35.4629 8.99241 35.6857 8.99241H35.76C35.9829 8.99241 36.181 8.8532 36.2801 8.60264C36.9983 6.37542 39.0785 5.01125 41.7778 5.01125C44.9724 5.01125 48.489 7.65608 48.489 13.4469ZM77.0921 13.4469V27.0051H73.8727V13.5025C73.8727 10.3287 71.941 8.65832 70.0342 8.65832C67.4091 8.65832 65.8985 10.6628 65.8985 14.1429V27.0051H62.6791V14.1429C62.6791 10.635 61.1685 8.65832 58.5434 8.65832C56.6366 8.65832 54.7049 10.3287 54.7049 13.5025V27.0051H51.436V13.4469C51.436 7.65608 54.9526 5.01125 58.2463 5.01125C60.8961 5.01125 63.001 6.40326 63.744 8.60264C63.8183 8.8532 64.0412 8.99241 64.2393 8.99241H64.3383C64.5612 8.99241 64.7593 8.8532 64.8584 8.60264C65.5766 6.37542 67.7063 5.01125 70.3561 5.01125C73.5755 5.01125 77.0921 7.65608 77.0921 13.4469Z" fill="#C51230"/>
<path d="M83.7417 8.68142H84.5589C84.658 8.68142 84.757 8.65358 84.8066 8.57006C84.8809 8.48654 84.9056 8.37518 84.9056 8.29166V5.73035L86.2677 5.34059V8.29166C86.2677 8.40302 86.2924 8.51438 86.3667 8.57006C86.441 8.65358 86.5401 8.68142 86.6144 8.68142H87.8774V10.0734H86.6144C86.5153 10.0734 86.4163 10.1013 86.3667 10.1848C86.2924 10.2683 86.2677 10.3797 86.2677 10.4632V14.7227C86.2677 15.3074 86.2924 15.7807 86.4906 16.2261C86.6639 16.6159 86.9116 16.9221 87.2583 17.1727L88.0755 17.6738L87.5307 18.8153C86.6392 18.342 85.9705 17.8965 85.5743 17.3954C85.1533 16.8386 84.9304 16.1983 84.9304 15.1404V10.491C84.9304 10.3797 84.9056 10.2683 84.8313 10.2126C84.757 10.1291 84.6828 10.1013 84.5837 10.1013H83.7665V8.68142H83.7417ZM91.072 14.2216C90.9977 14.3051 90.973 14.4165 90.973 14.5C91.1463 16.3932 92.6569 17.6738 94.2419 17.6738C95.381 17.7017 96.3716 17.117 97.1146 16.1426L98.2042 16.8386C97.1393 18.1471 95.7773 18.9266 94.2914 18.9545C91.1463 18.9545 89.388 16.3375 89.388 13.6648C89.388 11.02 91.1711 8.37517 94.2914 8.37517C94.2914 8.37517 94.2914 8.37517 94.3162 8.37517C95.1829 8.37517 96.3469 8.82061 97.2879 9.7115C98.1794 10.6581 98.8728 12.0501 98.8728 13.9989V14.0267H91.3444C91.2454 14.0824 91.1463 14.1103 91.072 14.2216ZM91.0472 12.8018C91.1463 12.9131 91.2454 12.941 91.3444 12.941H96.8669C96.966 12.941 97.0898 12.9131 97.1641 12.8018C97.2384 12.6904 97.2384 12.5791 97.1889 12.4399C96.7431 10.6581 95.4801 9.62799 94.0685 9.68367C92.6074 9.65583 91.3692 10.7416 90.9977 12.4955C90.973 12.579 90.973 12.7183 91.0472 12.8018ZM104.222 18.9545C106.921 18.9266 107.912 17.0892 107.912 15.725C107.912 15.0012 107.714 14.5 107.392 14.1103C107.045 13.7205 106.5 13.4143 105.683 13.2472L103.628 12.8018C103.207 12.7183 102.81 12.5791 102.563 12.3285C102.266 12.1058 102.067 11.716 102.067 11.2706C102.067 10.6859 102.389 10.2126 102.786 9.93423C103.207 9.68367 103.677 9.54447 104.197 9.54447C104.866 9.54447 105.757 9.76719 106.674 10.6024L107.392 9.62799C106.253 8.79278 105.262 8.43086 104.123 8.43086C101.869 8.4587 100.73 9.96207 100.73 11.549C100.73 12.245 100.854 12.7183 101.3 13.1637C101.721 13.5535 102.538 13.9711 103.851 14.2216L105.014 14.4722C105.435 14.5557 105.782 14.6949 106.079 14.9733C106.377 15.2239 106.525 15.6415 106.525 16.1148C106.525 16.588 106.277 17.0335 105.881 17.3397C105.485 17.6181 104.94 17.8409 104.296 17.8409C103.207 17.8409 102.092 17.2562 101.3 16.421L100.433 17.4511C101.597 18.4534 102.786 18.9545 104.222 18.9545ZM145.826 18.9545C148.526 18.9266 149.467 17.0892 149.516 15.725C149.516 15.0012 149.318 14.5 148.996 14.1103C148.65 13.7205 148.105 13.4143 147.263 13.2472L145.232 12.8018C144.786 12.7183 144.415 12.5791 144.142 12.3285C143.845 12.1058 143.697 11.716 143.697 11.2706C143.697 10.6859 144.019 10.2126 144.415 9.93423C144.811 9.68367 145.306 9.54447 145.802 9.54447C146.47 9.54447 147.387 9.76719 148.328 10.6024L149.046 9.62799C147.907 8.79278 146.916 8.43086 145.752 8.43086C143.523 8.4587 142.384 9.96207 142.359 11.549C142.384 12.245 142.508 12.7183 142.979 13.1637C143.4 13.5535 144.217 13.9711 145.529 14.2216L146.693 14.4722C147.089 14.5557 147.461 14.6949 147.758 14.9733C148.006 15.2239 148.204 15.6415 148.204 16.1148C148.204 16.588 147.956 17.0335 147.56 17.3397C147.164 17.6181 146.619 17.8409 145.975 17.8409C144.885 17.8409 143.771 17.2562 142.979 16.421L142.112 17.4511C143.226 18.4534 144.415 18.9545 145.826 18.9545ZM108.927 10.0734H109.744C109.844 10.0734 109.943 10.1013 109.992 10.1848C110.066 10.2683 110.091 10.3797 110.091 10.4632V15.1125C110.091 16.1705 110.314 16.8108 110.76 17.3676C111.156 17.8687 111.8 18.3141 112.691 18.7874L113.236 17.646L112.419 17.1449C112.097 16.8943 111.8 16.5881 111.651 16.1983C111.478 15.7528 111.428 15.2796 111.428 14.6949V10.4354C111.428 10.324 111.453 10.2126 111.528 10.1569C111.602 10.0734 111.676 10.0456 111.775 10.0456H113.063V8.65358H111.775C111.676 8.65358 111.577 8.62574 111.528 8.54222C111.453 8.4587 111.428 8.34733 111.428 8.26381V5.31274L110.066 5.70251V8.26381C110.066 8.37517 110.042 8.48654 109.967 8.54222C109.893 8.62574 109.819 8.65358 109.72 8.65358H108.927V10.0734ZM115.193 15.1404C115.193 16.1983 115.391 16.8386 115.837 17.3954C116.258 17.8965 116.901 18.342 117.768 18.8153L118.338 17.6738L117.521 17.1727C117.199 16.95 116.901 16.6716 116.703 16.254C116.555 15.8642 116.48 15.3352 116.48 14.7227V5.47979H115.143V15.1404H115.193ZM128.516 8.68142V18.6761H127.154V17.7573C127.154 17.646 127.129 17.5346 127.055 17.4789C126.981 17.3954 126.931 17.3676 126.807 17.3676H126.783C126.683 17.3676 126.584 17.4511 126.535 17.5068C125.965 18.3698 124.9 18.9545 123.662 18.9545C120.765 18.9545 119.081 16.254 119.081 13.6648C119.081 12.4677 119.527 11.1035 120.344 10.1013C121.186 9.07118 122.35 8.40301 123.761 8.40301C125.099 8.40301 126.064 9.07118 126.51 9.82287C126.584 9.93423 126.708 10.0177 126.807 10.0177H126.832C126.956 10.0177 127.03 9.98991 127.08 9.90639C127.154 9.82287 127.179 9.71151 127.179 9.62799V8.70926H128.516V8.68142ZM127.278 13.6648C127.278 11.5211 125.767 9.76719 123.91 9.76719C122.077 9.76719 120.517 11.5211 120.517 13.6648C120.517 15.8085 122.077 17.5625 123.91 17.5625C125.742 17.5625 127.278 15.8364 127.278 13.6648ZM140.824 13.6648C140.799 17.0613 138.496 18.8988 136.218 18.9545C134.955 18.9545 133.766 18.2585 133.37 17.5346C133.296 17.4233 133.197 17.3397 133.073 17.3397H133.048C132.949 17.3397 132.85 17.3676 132.8 17.4511C132.726 17.5346 132.701 17.646 132.701 17.7295V18.6482H131.339V5.47979H132.701V9.60014C132.701 9.7115 132.726 9.82287 132.8 9.87855C132.875 9.96207 132.949 9.9899 133.048 9.9899H133.073C133.197 9.9899 133.296 9.90639 133.37 9.79503C133.766 9.07118 134.955 8.37517 136.218 8.37517C138.496 8.40301 140.799 10.2962 140.824 13.6648ZM139.338 13.6648C139.338 12.5791 138.991 11.5768 138.397 10.9086C137.828 10.2126 136.986 9.76719 136.02 9.76719C135.079 9.76719 134.237 10.2126 133.642 10.9086C133.073 11.6046 132.701 12.5791 132.701 13.6648C132.701 14.7506 133.048 15.7528 133.642 16.421C134.261 17.117 135.103 17.5625 136.02 17.5625C136.986 17.5625 137.828 17.117 138.397 16.421C138.991 15.7528 139.338 14.7784 139.338 13.6648Z" fill="#201E1F"/>
</svg>
