<svg width="156" height="34" viewBox="0 0 156 34" fill="none" xmlns="http://www.w3.org/2000/svg">
<g clip-path="url(#clip0_8472_101314)">
<path d="M125.582 27.9968C119.878 28.1469 114.389 23.6159 114.351 16.4921C114.312 9.55342 119.968 5.01281 125.473 5.00004C131.407 4.98407 136.724 9.7961 136.836 16.2941C136.944 22.8368 131.871 27.9873 125.585 27.9968H125.582ZM130.767 16.6326C130.761 13.4139 128.704 11.2681 125.62 11.2585C122.585 11.249 120.429 13.4011 120.422 16.4505C120.416 19.5798 122.585 21.783 125.678 21.7894C128.522 21.7958 130.774 19.5127 130.767 16.6357V16.6326Z" fill="#444E57"/>
<path d="M94.7646 7.36608C93.9776 9.09994 93.2195 10.7635 92.5542 12.226C90.6988 11.8779 89.029 11.3575 87.3432 11.2936C84.0676 11.1659 81.9532 13.4649 81.9532 16.7826C81.9532 19.7298 84.0868 22.0544 87.404 21.7766C88.015 21.7255 88.6196 21.6137 89.3489 21.5116V16.2429H95.0525V26.3747C90.6892 29.1208 82.3178 28.2107 78.9622 24.5706C75.5491 20.8666 75.1524 16.5016 76.9629 12.0536C78.7319 7.70455 82.305 5.48852 87.0073 5.20753C89.7744 5.04149 92.3494 5.69927 94.7614 7.36608H94.7646Z" fill="#444E57"/>
<path d="M61.8419 5.5907H68.3836C70.7955 12.788 73.201 19.9693 75.6577 27.3039H69.5831C69.2984 26.6237 68.9945 25.9053 68.6651 25.123H61.0646C60.7799 25.7871 60.476 26.4992 60.1305 27.3103H54.1519C56.7397 19.998 59.27 12.855 61.8419 5.5907ZM67.0016 19.4297C66.2915 17.137 65.6197 14.9753 64.9512 12.8135C64.8648 12.8103 64.7752 12.8071 64.6889 12.8007C64.0459 14.9625 63.4029 17.121 62.7152 19.4265H67.0016V19.4297Z" fill="#444E57"/>
<path d="M139.475 5.38318C142.737 5.55241 145.812 5.58115 148.854 5.91962C150.837 6.13995 152.558 7.11065 153.713 8.8956C155.558 11.7502 154.781 16.2078 151.835 17.616C151.656 17.7022 151.515 17.8683 151.294 18.0503C152.849 21.122 154.384 24.1587 156 27.3486H149.682C148.313 24.6185 146.902 21.8022 145.488 18.9858C145.412 18.989 145.335 18.9922 145.261 18.9954V27.3007H139.475V5.38318ZM145.29 15.6139C146.675 15.8438 147.827 15.7225 148.47 14.4963C148.959 13.5607 148.972 12.5326 148.383 11.6225C147.657 10.4985 146.506 10.4858 145.29 10.4826V15.6139Z" fill="#444E57"/>
<path d="M40 27.3103V5.5173C40.8605 5.5173 41.6378 5.48217 42.4087 5.52368C44.6799 5.64821 46.9831 5.6099 49.2095 5.99626C52.9586 6.64766 54.9738 9.19896 55.0858 12.9764C55.2681 19.0721 51.2216 21.617 46.9287 21.5659C46.612 21.5627 46.2985 21.5659 45.7643 21.5659V27.3103H40ZM45.8059 11.0925V15.9013C47.0279 16.0769 48.1379 16.0035 48.8288 14.9625C49.4142 14.078 49.3662 13.0339 48.8544 12.1175C48.2243 10.9967 47.1558 10.8274 45.8059 11.0925Z" fill="#444E57"/>
<path d="M111.942 5.72167V11.7662C110.669 11.696 109.418 11.597 108.171 11.5715C106.034 11.5268 103.347 13.4714 103.321 16.4218C103.299 19.0306 105.65 21.5595 108.155 21.4797C109.514 21.4382 110.868 21.2434 112.403 21.0997C112.262 23.089 112.115 25.2124 111.968 27.2816C107.63 28.843 102.253 27.1475 99.3357 23.386C96.6294 19.8991 96.5655 13.8226 99.1949 10.1346C102.004 6.19425 107.355 4.26242 111.939 5.72486L111.942 5.72167Z" fill="#444E57"/>
</g>
<path d="M31.9966 17.8881C31.9713 18.2053 31.9484 18.5225 31.9209 18.8385C31.7851 20.4811 31.4142 22.0905 30.8217 23.6081C29.1849 27.7795 26.4948 30.8518 22.6998 32.7389C21.3496 33.4064 19.9094 33.8319 18.4348 33.999C18.4141 34.0003 18.3935 34.0003 18.3729 33.999C18.327 33.5944 18.2815 33.1918 18.2365 32.7913C18.1165 31.7273 17.9961 30.6632 17.8754 29.5991C17.7577 28.5492 17.6385 27.4997 17.5178 26.4506C17.3894 25.3341 17.2599 24.2176 17.1292 23.1011C17.0857 22.7176 17.0295 22.3355 17.0009 21.9508C16.9944 21.8163 17.0239 21.6827 17.0857 21.5661C17.245 21.2664 17.4834 21.0666 17.817 21.0753C18.1505 21.0841 18.3442 21.3126 18.4749 21.6098C18.5567 21.8135 18.6278 22.0219 18.6881 22.2343C19.0747 23.4416 19.4602 24.6489 19.8446 25.8561C19.8595 25.9061 19.8778 25.9548 19.895 26.0048C20.4589 26.0048 21.0183 26.0048 21.5765 26.0048L27.8703 25.9748C27.9444 25.9879 28.0189 25.9534 28.0617 25.8861C29.0302 24.3624 29.797 22.7339 30.2498 20.9404C30.6314 19.4183 30.7827 17.8385 30.6979 16.2633C30.6739 15.7962 30.6303 15.3291 30.589 14.8632C30.5478 14.3974 30.7885 14.0352 31.1621 14.0052C31.3685 13.9725 31.5692 14.0957 31.6504 14.305C31.7509 14.5432 31.8211 14.7954 31.859 15.0543C31.9198 15.5227 31.9415 15.996 31.9794 16.4681C31.9794 16.5056 31.9931 16.5418 32 16.5792L31.9966 17.8881Z" fill="#444E57"/>
<path d="M14.1621 0.00889886L14.3768 0.0578426C14.3295 0.369303 14.2858 0.676314 14.2339 0.994448C14.1275 0.969976 14.0283 0.945504 13.9291 0.925482C13.6533 0.853796 13.3656 0.924646 13.134 1.12126C12.8183 1.40491 12.7246 1.80424 12.791 2.25253C12.8528 2.67077 13.0848 2.91994 13.4187 3.01338C13.6562 3.0714 13.9027 3.03231 14.1202 2.90214C14.0765 2.56843 14.0292 2.25253 13.9892 1.92327L14.7334 1.75975C14.8244 2.36376 14.9099 2.96555 15 3.57846C14.7833 3.72913 14.5502 3.84148 14.3076 3.91216C13.7572 4.07679 13.2277 4.0234 12.7464 3.63741C12.3651 3.34434 12.1029 2.86796 12.0244 2.3258C11.9459 1.78364 12.0585 1.22616 12.3342 0.790887C12.6163 0.359292 13.0048 0.151281 13.4388 0.0511685L13.6762 0L14.1621 0.00889886Z" fill="#444E57"/>
<path d="M12.1011 25.9852L12.5596 24.5671C12.8538 23.6441 13.1484 22.7203 13.4434 21.7957C13.5062 21.5676 13.6313 21.3658 13.8021 21.217C14.0225 21.0191 14.337 21.0053 14.5713 21.1833C14.8395 21.3679 15.0367 21.6099 14.9942 21.9865C14.8055 23.6429 14.6145 25.2984 14.4211 26.9531C14.201 28.8722 13.9821 30.7913 13.7643 32.7103C13.7173 33.1307 13.6715 33.551 13.621 34C13.1362 33.9102 12.6628 33.8404 12.1963 33.7343C7.50467 32.6704 3.50885 29.0572 1.46624 24.3251C0.753289 22.6837 0.292129 20.9264 0.101056 19.1229C-0.0507266 17.7169 -0.0314564 16.2952 0.158369 14.8947C0.179802 14.7381 0.218281 14.5849 0.272993 14.4382C0.400227 14.1027 0.624891 13.9555 0.888528 14.0117C1.19054 14.0694 1.40894 14.3578 1.40319 14.6914C1.40319 14.9409 1.36881 15.1816 1.34588 15.426C1.05473 18.5915 1.59691 21.57 3.0515 24.3388C3.3243 24.8565 3.63264 25.3541 3.92952 25.8555C3.96581 25.9109 4.02212 25.9467 4.08427 25.954C6.72293 25.969 9.36159 25.9815 12.0002 25.9914C12.0312 25.9902 12.0621 25.9865 12.1011 25.9852Z" fill="#444E57"/>
<path d="M20 24.9837C20.6844 24.5899 21.3177 24.1117 21.8852 23.56C23.3194 22.1782 24.2471 20.3464 24.5171 18.3636C24.6235 17.5959 24.6451 16.8185 24.5816 16.0459C24.5658 15.8583 24.5737 15.6694 24.6052 15.4837C24.6436 15.2178 24.8639 15.017 25.1298 15.0054C25.4225 14.9728 25.6706 15.0868 25.7661 15.3673C25.86 15.6454 25.9216 15.9337 25.9496 16.2262C26.22 18.981 25.3903 21.4126 23.7394 23.5826C23.3872 24.0459 22.9953 24.4779 22.612 24.9211C22.5727 24.9664 22.5176 24.9946 22.4582 25C21.662 25 20.8657 25 20.0695 25C20.046 24.9961 20.0228 24.9907 20 24.9837Z" fill="#444E57"/>
<path d="M12 24.9925C11.9355 24.9925 11.8945 25 11.8536 25C11.1004 25 10.3459 25 9.59144 25C9.52281 25.0005 9.45629 24.9761 9.40407 24.9311C8.30713 23.7675 7.37771 22.4886 6.75726 20.998C6.13708 19.5251 5.89179 17.919 6.04376 16.3259C6.06629 16.0416 6.11405 15.7599 6.18646 15.4842C6.29566 15.0947 6.58354 14.9381 6.96077 15.022C7.23997 15.0834 7.42486 15.3201 7.42858 15.6721C7.42858 15.9865 7.3988 16.2984 7.3926 16.6153C7.32435 19.9609 8.61983 22.6188 11.3299 24.5603C11.5421 24.7056 11.7642 24.8434 12 24.9925Z" fill="#444E57"/>
<path d="M26 25C26.1245 24.8175 26.2366 24.6595 26.345 24.5004C27.0648 23.437 27.7025 22.3349 28.1073 21.1263C28.5027 19.8939 28.6732 18.6075 28.6117 17.3217C28.5955 16.842 28.5482 16.3646 28.5295 15.885C28.5215 15.7186 28.5387 15.5519 28.5805 15.3901C28.6391 15.1653 28.8523 15.0064 29.0986 15.004C29.3614 14.9806 29.5968 15.0578 29.6989 15.2906C29.7992 15.515 29.8662 15.7512 29.8982 15.9926C30.1574 18.0256 29.9201 20.0873 29.2045 22.0213C28.8337 23.0206 28.3637 23.985 27.8009 24.9017C27.7726 24.949 27.7241 24.9827 27.6676 24.9942C27.1221 25 26.5779 25 26 25Z" fill="#444E57"/>
<path d="M24 25C24.1315 24.8206 24.2449 24.6679 24.3561 24.5152C24.971 23.6609 25.5421 22.7714 25.9677 21.7728C26.3988 20.7615 26.653 19.6651 26.7163 18.5443C26.7633 17.7311 26.7548 16.9143 26.7697 16.0987C26.7606 15.9078 26.7606 15.7164 26.7697 15.5255C26.7835 15.2451 26.9811 15.0212 27.2285 15.0056C27.5087 14.9717 27.7204 15.0904 27.8017 15.3958C27.8793 15.701 27.9308 16.0139 27.9557 16.3302C28.1642 18.8412 27.6274 21.1632 26.5441 23.3397C26.2778 23.8742 25.9784 24.3856 25.6886 24.9055C25.6624 24.9545 25.6187 24.9882 25.5688 24.9976C25.0598 25 24.5465 25 24 25Z" fill="#444E57"/>
<path d="M6 24.9911C5.94517 24.9911 5.91277 24.9993 5.87538 24.9993C5.37692 24.9993 4.87846 24.9993 4.37127 24.9993C4.29956 25.0057 4.23125 24.9692 4.20055 24.908C3.23104 23.3019 2.51574 21.6092 2.19174 19.7807C1.97736 18.5784 1.94255 17.354 2.08831 16.1426C2.11601 15.8915 2.17113 15.6438 2.2528 15.4033C2.37742 15.0652 2.69021 14.9354 3.05284 15.0301C3.31951 15.1027 3.49398 15.3425 3.4865 15.6829C3.47902 16.0233 3.43915 16.3789 3.41921 16.7264C3.32325 18.3805 3.44787 20.0077 4.06596 21.5787C4.51458 22.7181 5.15137 23.7639 5.85794 24.7758C5.90031 24.8425 5.94517 24.9104 6 24.9911Z" fill="#444E57"/>
<path d="M8 25C7.45752 25 6.945 25 6.4314 25C6.38884 24.9938 6.35027 24.9685 6.32441 24.9297C5.3443 23.3093 4.55893 21.5882 4.2037 19.6466C3.97465 18.3859 3.93845 17.09 4.0967 15.8155C4.11984 15.6399 4.16676 15.4694 4.2358 15.3101C4.3428 15.0519 4.54502 14.9743 4.7847 15.0071C4.99307 15.0173 5.16903 15.1857 5.21269 15.4167C5.2464 15.5708 5.26045 15.7296 5.25442 15.8882C5.20734 17.1971 5.22018 18.5025 5.45237 19.7933C5.67906 21.0217 6.13188 22.1822 6.78129 23.199C7.14722 23.7832 7.55168 24.3358 7.93794 24.903L8 25Z" fill="#444E57"/>
<path d="M26 4.02026C25.986 5.12372 24.8574 6.00962 23.4781 5.99992C22.0987 5.99022 20.9898 5.0886 21.0001 3.98511C21.0104 2.88162 22.1359 1.99332 23.5153 2.00004C24.897 2.01241 26.007 2.91489 26 4.02026ZM23.5097 3.01016C23.0616 3.00916 22.6469 3.19948 22.4218 3.50942C22.1967 3.81935 22.1953 4.20183 22.4183 4.51277C22.6412 4.82371 23.0546 5.01588 23.5027 5.01688C23.9508 5.01788 24.3655 4.82757 24.5907 4.51763C24.8158 4.20769 24.8171 3.82522 24.5942 3.51428C24.3712 3.20333 23.9578 3.01117 23.5097 3.01016Z" fill="#444E57"/>
<path d="M25 8.47919L28.6735 6C28.7622 6.09631 28.8509 6.18668 28.9269 6.28181C29.1904 6.59691 29.4551 6.90963 29.7123 7.23306C30.3279 7.99643 29.8617 8.73603 29.1954 9.04162C28.8132 9.22487 28.3704 9.26278 27.9591 9.14744C27.7995 9.44947 27.6386 9.75743 27.4765 10.0642C27.3143 10.371 27.1509 10.679 26.9799 11C26.7354 10.6873 26.5011 10.3924 26.2769 10.0916C26.2571 10.0398 26.2622 9.98257 26.2908 9.9346C26.5442 9.478 26.7975 9.02378 27.0597 8.56956C27.0882 8.52461 27.1055 8.47421 27.1104 8.42212L25.6866 9.37336L25 8.47919ZM28.5659 7.39715L27.6791 8.05232C27.8263 8.19421 28.019 8.28693 28.2276 8.31629C28.4313 8.34867 28.6363 8.26639 28.7521 8.10583C28.8787 7.94055 28.823 7.7717 28.7255 7.61356C28.6824 7.5434 28.6267 7.47919 28.5659 7.39715Z" fill="#444E57"/>
<path d="M7.84143 2L11 4.72494C10.7278 4.92424 10.4698 5.11655 10.2085 5.30769C10.1725 5.32154 10.1327 5.31726 10.1 5.29604C10.0111 5.2366 9.93196 5.16084 9.84196 5.10373C9.80116 5.08277 9.75373 5.08277 9.71293 5.10373C9.3768 5.31585 9.04392 5.53341 8.71429 5.75641C8.67648 5.79014 8.65429 5.83996 8.65357 5.89277C8.65357 6.03263 8.67634 6.17133 8.68393 6.31119C8.68747 6.34949 8.67653 6.38771 8.65357 6.41725C8.39442 6.61305 8.13094 6.8042 7.85552 7C7.7883 6.65618 7.72215 6.331 7.65926 6.00583C7.4424 4.90909 7.23205 3.81235 7.00868 2.71678C6.98418 2.64888 7.01319 2.57221 7.07482 2.54196C7.33506 2.36247 7.58553 2.18065 7.84143 2ZM8.33587 4.82168L9.03091 4.34848L8.05503 3.4289L8.03443 3.44755C8.13202 3.90093 8.23178 4.35431 8.33587 4.82168Z" fill="#444E57"/>
<path d="M2 8.03923C2.35419 7.4111 2.68241 6.76727 3.18064 6.29189C3.55844 5.92787 3.99646 5.94642 4.43211 6.11916C4.82177 6.26448 5.14657 6.59348 5.33319 7.03187C5.5198 7.47026 5.55248 7.98107 5.42385 8.44894C5.35301 8.7159 5.20189 8.95145 5.07792 9.22126L6 10.0178L5.38371 11L2 8.03923ZM3.44628 7.75372L4.29162 8.45323C4.51358 7.99926 4.46163 7.56528 4.17355 7.38684C3.88548 7.20839 3.5974 7.35543 3.44628 7.75372Z" fill="#444E57"/>
<path d="M20 0.150554C20 0.194515 20 0.220617 20 0.246719L19.7738 1.59028C19.7183 1.55593 19.6731 1.52983 19.629 1.49961C19.3511 1.30009 19.0231 1.22979 18.7059 1.30178C18.3007 1.39805 18.0005 1.81513 17.9762 2.31563C17.9378 2.89125 18.1493 3.31849 18.569 3.51494C18.8382 3.63126 19.1272 3.66385 19.4095 3.60973L19.5056 3.59462C19.4242 4.06995 19.345 4.52742 19.2636 5C18.6493 4.89147 18.0599 4.75135 17.5758 4.26091C17.2307 3.91907 17.0244 3.41253 17.0101 2.87201C16.9853 2.49666 17.0062 2.11891 17.0724 1.75101C17.2692 0.8031 17.8314 0.294801 18.5871 0.0791177C19.0552 -0.0467278 19.5422 -0.0221048 20 0.150554Z" fill="#444E57"/>
<path d="M16.056 27H16.1132C16.1634 26.6284 16.2299 26.2643 16.2625 25.894C16.3594 24.8833 16.4399 23.8714 16.5379 22.862C16.5653 22.3876 16.6719 21.922 16.853 21.4872C17.0863 20.9918 17.4492 20.7937 17.9603 20.8742C18.4089 20.9612 18.8402 21.1287 19.2357 21.3696C20.0674 21.862 20.8627 22.4205 21.6149 23.0404C21.6581 23.0751 21.7024 23.1073 21.7456 23.1395L21.7608 23.1196L19.7398 19.6951L22.8215 20.0493L22.8331 20.0245L20.3571 18.0144L24 17.1065V17.0706L20.4364 16.1627L22.881 14.1526L22.8705 14.1291L19.72 14.5415L21.6849 11.1739L21.6604 11.1541L18.5321 13.2088C18.6383 12.0941 18.741 11.0253 18.8436 9.95021L18.8133 9.94402L16.8798 12.5115C16.6068 10.6475 16.3396 8.82314 16.0712 7H16.0478C15.8028 8.81694 15.5566 10.6351 15.3069 12.4855L13.2789 9.88457L13.2532 9.90191C13.4002 11.0166 13.5461 12.1201 13.6966 13.2596L10.5146 11.1937L10.4971 11.2148L12.4877 14.6084L9.1832 14.1278L9.1727 14.1526L11.8098 16.2296L8 17.135V17.1635L11.7876 18.0627L9.15869 20.2598L12.4259 19.7248L10.4877 23.1531C10.5552 23.1214 10.6181 23.0797 10.6744 23.0292C11.3221 22.5338 11.958 22.0384 12.6196 21.5702C13.0606 21.2428 13.5553 21.0055 14.0782 20.8705C14.7095 20.7193 15.1365 20.9448 15.3874 21.5702C15.4472 21.7201 15.4953 21.8751 15.5309 22.0334C15.727 22.8843 15.7515 23.7587 15.8296 24.6257C15.9031 25.4171 15.9813 26.2098 16.056 27Z" fill="#444E57"/>
<path d="M16.0537 26.9975C15.979 26.2073 15.9008 25.417 15.8296 24.6256C15.7515 23.7585 15.727 22.8841 15.5309 22.0331C15.4953 21.8748 15.4472 21.7198 15.3874 21.5699C15.1365 20.9444 14.7095 20.719 14.0782 20.8701C13.5553 21.0052 13.0606 21.2425 12.6196 21.5699C11.9603 22.0381 11.3221 22.5397 10.6744 23.029C10.6181 23.0795 10.5552 23.1212 10.4877 23.1528L12.4259 19.7169L9.15869 20.252L11.7853 18.0596L8 17.1604V17.1319L11.8098 16.2265L9.1727 14.1493L9.1832 14.1245L12.4854 14.6051L10.4936 11.215L10.5111 11.194L13.6931 13.26C13.5426 12.1205 13.3967 11.0119 13.2497 9.90209L13.2754 9.88475L15.3034 12.4858C15.5531 10.6354 15.7993 8.81706 16.0443 7H16.0677C16.3361 8.82325 16.6033 10.6477 16.8763 12.5119L18.8098 9.9442L18.8401 9.95039C18.7375 11.0255 18.6348 12.1006 18.5286 13.2092L21.6569 11.1593L21.6814 11.1791L19.72 14.5382L22.8705 14.1258L22.881 14.1493L20.4364 16.1596L24 17.0675V17.1034L20.3571 18.0113L22.8331 20.0216L22.8215 20.0464L19.7398 19.6921L21.7608 23.1194L21.7456 23.1392C21.7025 23.107 21.6581 23.0748 21.6149 23.0401C20.8627 22.4202 20.0674 21.8617 19.2357 21.3692C18.8402 21.1283 18.4089 20.9608 17.9603 20.8738C17.4492 20.7933 17.0817 20.9915 16.853 21.4869C16.6719 21.9217 16.5653 22.3873 16.5379 22.8618C16.4399 23.8712 16.3594 24.8832 16.2625 25.8939C16.2264 26.2655 16.1634 26.6309 16.1132 27L16.0537 26.9975Z" fill="#444E57"/>
<defs>
<clipPath id="clip0_8472_101314">
<rect width="116" height="23" fill="white" transform="translate(40 5)"/>
</clipPath>
</defs>
</svg>
