<svg width="152" height="34" viewBox="0 0 152 34" fill="none" xmlns="http://www.w3.org/2000/svg">
<g clip-path="url(#clip0_8472_101218)">
<path d="M31.9966 17.8881C31.9713 18.2053 31.9484 18.5225 31.9209 18.8385C31.7851 20.4811 31.4142 22.0905 30.8217 23.6081C29.1849 27.7795 26.4948 30.8518 22.6998 32.7389C21.3496 33.4064 19.9094 33.8319 18.4348 33.999C18.4141 34.0003 18.3935 34.0003 18.3729 33.999C18.327 33.5944 18.2815 33.1918 18.2365 32.7913C18.1165 31.7273 17.9961 30.6632 17.8754 29.5991C17.7577 28.5492 17.6385 27.4997 17.5178 26.4506C17.3894 25.3341 17.2599 24.2176 17.1292 23.1011C17.0857 22.7176 17.0295 22.3355 17.0009 21.9508C16.9944 21.8163 17.0239 21.6827 17.0857 21.5661C17.245 21.2664 17.4834 21.0666 17.817 21.0753C18.1505 21.0841 18.3442 21.3126 18.4749 21.6098C18.5567 21.8135 18.6278 22.0219 18.6881 22.2343C19.0747 23.4416 19.4602 24.6489 19.8446 25.8561C19.8595 25.9061 19.8778 25.9548 19.895 26.0048C20.4589 26.0048 21.0183 26.0048 21.5765 26.0048L27.8703 25.9748C27.9444 25.9879 28.0189 25.9534 28.0617 25.8861C29.0302 24.3624 29.797 22.7339 30.2498 20.9404C30.6314 19.4183 30.7827 17.8385 30.6979 16.2633C30.6739 15.7962 30.6303 15.3291 30.589 14.8632C30.5478 14.3974 30.7885 14.0352 31.1621 14.0052C31.3685 13.9725 31.5692 14.0957 31.6504 14.305C31.7509 14.5432 31.8211 14.7954 31.859 15.0543C31.9198 15.5227 31.9415 15.996 31.9794 16.4681C31.9794 16.5056 31.9931 16.5418 32 16.5792L31.9966 17.8881Z" fill="url(#paint0_linear_8472_101218)"/>
<path d="M14.1621 0.00889886L14.3768 0.0578426C14.3295 0.369303 14.2858 0.676314 14.2339 0.994448C14.1275 0.969976 14.0283 0.945504 13.9291 0.925482C13.6533 0.853796 13.3656 0.924646 13.134 1.12126C12.8183 1.40491 12.7246 1.80424 12.791 2.25253C12.8528 2.67077 13.0848 2.91994 13.4187 3.01338C13.6562 3.0714 13.9027 3.03231 14.1202 2.90214C14.0765 2.56843 14.0292 2.25253 13.9892 1.92327L14.7334 1.75975C14.8244 2.36376 14.9099 2.96555 15 3.57846C14.7833 3.72913 14.5502 3.84148 14.3076 3.91216C13.7572 4.07679 13.2277 4.0234 12.7464 3.63741C12.3651 3.34434 12.1029 2.86796 12.0244 2.3258C11.9459 1.78364 12.0585 1.22616 12.3342 0.790887C12.6163 0.359292 13.0048 0.151281 13.4388 0.0511685L13.6762 0L14.1621 0.00889886Z" fill="url(#paint1_linear_8472_101218)"/>
<path d="M12.1011 25.9852L12.5596 24.5671C12.8538 23.6441 13.1484 22.7203 13.4434 21.7957C13.5062 21.5676 13.6313 21.3658 13.8021 21.217C14.0225 21.0191 14.337 21.0053 14.5713 21.1833C14.8395 21.3679 15.0367 21.6099 14.9942 21.9865C14.8055 23.6429 14.6145 25.2984 14.4211 26.9531C14.201 28.8722 13.9821 30.7913 13.7643 32.7103C13.7173 33.1307 13.6715 33.551 13.621 34C13.1362 33.9102 12.6628 33.8404 12.1963 33.7343C7.50467 32.6704 3.50885 29.0572 1.46624 24.3251C0.753289 22.6837 0.292129 20.9264 0.101056 19.1229C-0.0507266 17.7169 -0.0314564 16.2952 0.158369 14.8947C0.179802 14.7381 0.218281 14.5849 0.272993 14.4382C0.400227 14.1027 0.624891 13.9555 0.888528 14.0117C1.19054 14.0694 1.40894 14.3578 1.40319 14.6914C1.40319 14.9409 1.36881 15.1816 1.34588 15.426C1.05473 18.5915 1.59691 21.57 3.0515 24.3388C3.3243 24.8565 3.63264 25.3541 3.92952 25.8555C3.96581 25.9109 4.02212 25.9467 4.08427 25.954C6.72293 25.969 9.36159 25.9815 12.0002 25.9914C12.0312 25.9902 12.0621 25.9865 12.1011 25.9852Z" fill="url(#paint2_linear_8472_101218)"/>
<path d="M20 24.9837C20.6844 24.5899 21.3177 24.1117 21.8852 23.56C23.3194 22.1782 24.2471 20.3464 24.5171 18.3636C24.6235 17.5959 24.6451 16.8185 24.5816 16.0459C24.5658 15.8583 24.5737 15.6694 24.6052 15.4837C24.6436 15.2178 24.8639 15.017 25.1298 15.0054C25.4225 14.9728 25.6706 15.0868 25.7661 15.3673C25.86 15.6454 25.9216 15.9337 25.9496 16.2262C26.22 18.981 25.3903 21.4126 23.7394 23.5826C23.3872 24.0459 22.9953 24.4779 22.612 24.9211C22.5727 24.9664 22.5176 24.9946 22.4582 25C21.662 25 20.8657 25 20.0695 25C20.046 24.9961 20.0228 24.9907 20 24.9837Z" fill="url(#paint3_linear_8472_101218)"/>
<path d="M12 24.9925C11.9355 24.9925 11.8945 25 11.8536 25C11.1004 25 10.3459 25 9.59144 25C9.52281 25.0005 9.45629 24.9761 9.40407 24.9311C8.30713 23.7675 7.37771 22.4886 6.75726 20.998C6.13708 19.5251 5.89179 17.919 6.04376 16.3259C6.06629 16.0416 6.11405 15.7599 6.18646 15.4842C6.29566 15.0947 6.58354 14.9381 6.96077 15.022C7.23997 15.0834 7.42486 15.3201 7.42858 15.6721C7.42858 15.9865 7.3988 16.2984 7.3926 16.6153C7.32435 19.9609 8.61983 22.6188 11.3299 24.5603C11.5421 24.7056 11.7642 24.8434 12 24.9925Z" fill="url(#paint4_linear_8472_101218)"/>
<path d="M26 25C26.1245 24.8175 26.2366 24.6595 26.345 24.5004C27.0648 23.437 27.7025 22.3349 28.1073 21.1263C28.5027 19.8939 28.6732 18.6075 28.6117 17.3217C28.5955 16.842 28.5482 16.3646 28.5295 15.885C28.5215 15.7186 28.5387 15.5519 28.5805 15.3901C28.6391 15.1653 28.8523 15.0064 29.0986 15.004C29.3614 14.9806 29.5968 15.0578 29.6989 15.2906C29.7992 15.515 29.8662 15.7512 29.8982 15.9926C30.1574 18.0256 29.9201 20.0873 29.2045 22.0213C28.8337 23.0206 28.3637 23.985 27.8009 24.9017C27.7726 24.949 27.7241 24.9827 27.6676 24.9942C27.1221 25 26.5779 25 26 25Z" fill="url(#paint5_linear_8472_101218)"/>
<path d="M24 25C24.1315 24.8206 24.2449 24.6679 24.3561 24.5152C24.971 23.6609 25.5421 22.7714 25.9677 21.7728C26.3988 20.7615 26.653 19.6651 26.7163 18.5443C26.7633 17.7311 26.7548 16.9143 26.7697 16.0987C26.7606 15.9078 26.7606 15.7164 26.7697 15.5255C26.7835 15.2451 26.9811 15.0212 27.2285 15.0056C27.5087 14.9717 27.7204 15.0904 27.8017 15.3958C27.8793 15.701 27.9308 16.0139 27.9557 16.3302C28.1642 18.8412 27.6274 21.1632 26.5441 23.3397C26.2778 23.8742 25.9784 24.3856 25.6886 24.9055C25.6624 24.9545 25.6187 24.9882 25.5688 24.9976C25.0598 25 24.5465 25 24 25Z" fill="url(#paint6_linear_8472_101218)"/>
<path d="M6 24.9911C5.94517 24.9911 5.91277 24.9993 5.87538 24.9993C5.37692 24.9993 4.87846 24.9993 4.37127 24.9993C4.29956 25.0057 4.23125 24.9692 4.20055 24.908C3.23104 23.3019 2.51574 21.6092 2.19174 19.7807C1.97736 18.5784 1.94255 17.354 2.08831 16.1426C2.11601 15.8915 2.17113 15.6438 2.2528 15.4033C2.37742 15.0652 2.69021 14.9354 3.05284 15.0301C3.31951 15.1027 3.49398 15.3425 3.4865 15.6829C3.47902 16.0233 3.43915 16.3789 3.41921 16.7264C3.32325 18.3805 3.44787 20.0077 4.06596 21.5787C4.51458 22.7181 5.15137 23.7639 5.85794 24.7758C5.90031 24.8425 5.94517 24.9104 6 24.9911Z" fill="url(#paint7_linear_8472_101218)"/>
<path d="M8 25C7.45752 25 6.945 25 6.4314 25C6.38884 24.9938 6.35027 24.9685 6.32441 24.9297C5.3443 23.3093 4.55893 21.5882 4.2037 19.6466C3.97465 18.3859 3.93845 17.09 4.0967 15.8155C4.11984 15.6399 4.16676 15.4694 4.2358 15.3101C4.3428 15.0519 4.54502 14.9743 4.7847 15.0071C4.99307 15.0173 5.16903 15.1857 5.21269 15.4167C5.2464 15.5708 5.26045 15.7296 5.25442 15.8882C5.20734 17.1971 5.22018 18.5025 5.45237 19.7933C5.67906 21.0217 6.13188 22.1822 6.78129 23.199C7.14722 23.7832 7.55168 24.3358 7.93794 24.903L8 25Z" fill="url(#paint8_linear_8472_101218)"/>
<path d="M26 4.02026C25.986 5.12372 24.8574 6.00962 23.4781 5.99992C22.0987 5.99022 20.9898 5.0886 21.0001 3.98511C21.0104 2.88162 22.1359 1.99332 23.5153 2.00004C24.897 2.01241 26.007 2.91489 26 4.02026ZM23.5097 3.01016C23.0616 3.00916 22.6469 3.19948 22.4218 3.50942C22.1967 3.81935 22.1953 4.20183 22.4183 4.51277C22.6412 4.82371 23.0546 5.01588 23.5027 5.01688C23.9508 5.01788 24.3655 4.82757 24.5907 4.51763C24.8158 4.20769 24.8171 3.82522 24.5942 3.51428C24.3712 3.20333 23.9578 3.01117 23.5097 3.01016Z" fill="url(#paint9_linear_8472_101218)"/>
<path d="M25 8.47919L28.6735 6C28.7622 6.09631 28.8509 6.18668 28.9269 6.28181C29.1904 6.59691 29.4551 6.90963 29.7123 7.23306C30.3279 7.99643 29.8617 8.73603 29.1954 9.04162C28.8132 9.22487 28.3704 9.26278 27.9591 9.14744C27.7995 9.44947 27.6386 9.75743 27.4765 10.0642C27.3143 10.371 27.1509 10.679 26.9799 11C26.7354 10.6873 26.5011 10.3924 26.2769 10.0916C26.2571 10.0398 26.2622 9.98257 26.2908 9.9346C26.5442 9.478 26.7975 9.02378 27.0597 8.56956C27.0882 8.52461 27.1055 8.47421 27.1104 8.42212L25.6866 9.37336L25 8.47919ZM28.5659 7.39715L27.6791 8.05232C27.8263 8.19421 28.019 8.28693 28.2276 8.31629C28.4313 8.34867 28.6363 8.26639 28.7521 8.10583C28.8787 7.94055 28.823 7.7717 28.7255 7.61356C28.6824 7.5434 28.6267 7.47919 28.5659 7.39715Z" fill="url(#paint10_linear_8472_101218)"/>
<path d="M7.84143 2L11 4.72494C10.7278 4.92424 10.4698 5.11655 10.2085 5.30769C10.1725 5.32154 10.1327 5.31726 10.1 5.29604C10.0111 5.2366 9.93196 5.16084 9.84196 5.10373C9.80116 5.08277 9.75373 5.08277 9.71293 5.10373C9.3768 5.31585 9.04392 5.53341 8.71429 5.75641C8.67648 5.79014 8.65429 5.83996 8.65357 5.89277C8.65357 6.03263 8.67634 6.17133 8.68393 6.31119C8.68747 6.34949 8.67653 6.38771 8.65357 6.41725C8.39442 6.61305 8.13094 6.8042 7.85552 7C7.7883 6.65618 7.72215 6.331 7.65926 6.00583C7.4424 4.90909 7.23205 3.81235 7.00868 2.71678C6.98418 2.64888 7.01319 2.57221 7.07482 2.54196C7.33506 2.36247 7.58553 2.18065 7.84143 2ZM8.33587 4.82168L9.03091 4.34848L8.05503 3.4289L8.03443 3.44755C8.13202 3.90093 8.23178 4.35431 8.33587 4.82168Z" fill="url(#paint11_linear_8472_101218)"/>
<path d="M2 8.03923C2.35419 7.4111 2.68241 6.76727 3.18064 6.29189C3.55844 5.92787 3.99646 5.94642 4.43211 6.11916C4.82177 6.26448 5.14657 6.59348 5.33319 7.03187C5.5198 7.47026 5.55248 7.98107 5.42385 8.44894C5.35301 8.7159 5.20189 8.95145 5.07792 9.22126L6 10.0178L5.38371 11L2 8.03923ZM3.44628 7.75372L4.29162 8.45323C4.51358 7.99926 4.46163 7.56528 4.17355 7.38684C3.88548 7.20839 3.5974 7.35543 3.44628 7.75372Z" fill="url(#paint12_linear_8472_101218)"/>
<path d="M20 0.150554C20 0.194515 20 0.220617 20 0.246719L19.7738 1.59028C19.7183 1.55593 19.6731 1.52983 19.629 1.49961C19.3511 1.30009 19.0231 1.22979 18.7059 1.30178C18.3007 1.39805 18.0005 1.81513 17.9762 2.31563C17.9378 2.89125 18.1493 3.31849 18.569 3.51494C18.8382 3.63126 19.1272 3.66385 19.4095 3.60973L19.5056 3.59462C19.4242 4.06995 19.345 4.52742 19.2636 5C18.6493 4.89147 18.0599 4.75135 17.5758 4.26091C17.2307 3.91907 17.0244 3.41253 17.0101 2.87201C16.9853 2.49666 17.0062 2.11891 17.0724 1.75101C17.2692 0.8031 17.8314 0.294801 18.5871 0.0791177C19.0552 -0.0467278 19.5422 -0.0221048 20 0.150554Z" fill="url(#paint13_linear_8472_101218)"/>
<path d="M16.056 27H16.1132C16.1634 26.6284 16.2299 26.2643 16.2625 25.894C16.3594 24.8833 16.4399 23.8714 16.5379 22.862C16.5653 22.3876 16.6719 21.922 16.853 21.4872C17.0863 20.9918 17.4492 20.7937 17.9603 20.8742C18.4089 20.9612 18.8402 21.1287 19.2357 21.3696C20.0674 21.862 20.8627 22.4205 21.6149 23.0404C21.6581 23.0751 21.7024 23.1073 21.7456 23.1395L21.7608 23.1196L19.7398 19.6951L22.8215 20.0493L22.8331 20.0245L20.3571 18.0144L24 17.1065V17.0706L20.4364 16.1627L22.881 14.1526L22.8705 14.1291L19.72 14.5415L21.6849 11.1739L21.6604 11.1541L18.5321 13.2088C18.6383 12.0941 18.741 11.0253 18.8436 9.95021L18.8133 9.94402L16.8798 12.5115C16.6068 10.6475 16.3396 8.82314 16.0712 7H16.0478C15.8028 8.81694 15.5566 10.6351 15.3069 12.4855L13.2789 9.88457L13.2532 9.90191C13.4002 11.0166 13.5461 12.1201 13.6966 13.2596L10.5146 11.1937L10.4971 11.2148L12.4877 14.6084L9.1832 14.1278L9.1727 14.1526L11.8098 16.2296L8 17.135V17.1635L11.7876 18.0627L9.15869 20.2598L12.4259 19.7248L10.4877 23.1531C10.5552 23.1214 10.6181 23.0797 10.6744 23.0292C11.3221 22.5338 11.958 22.0384 12.6196 21.5702C13.0606 21.2428 13.5553 21.0055 14.0782 20.8705C14.7095 20.7193 15.1365 20.9448 15.3874 21.5702C15.4472 21.7201 15.4953 21.8751 15.5309 22.0334C15.727 22.8843 15.7515 23.7587 15.8296 24.6257C15.9031 25.4171 15.9813 26.2098 16.056 27Z" fill="#FBFCFD"/>
<path d="M16.0537 26.9975C15.979 26.2073 15.9008 25.417 15.8296 24.6256C15.7515 23.7585 15.727 22.8841 15.5309 22.0331C15.4953 21.8748 15.4472 21.7198 15.3874 21.5699C15.1365 20.9444 14.7095 20.719 14.0782 20.8701C13.5553 21.0052 13.0606 21.2425 12.6196 21.5699C11.9603 22.0381 11.3221 22.5397 10.6744 23.029C10.6181 23.0795 10.5552 23.1212 10.4877 23.1528L12.4259 19.7169L9.15869 20.252L11.7853 18.0596L8 17.1604V17.1319L11.8098 16.2265L9.1727 14.1493L9.1832 14.1245L12.4854 14.6051L10.4936 11.215L10.5111 11.194L13.6931 13.26C13.5426 12.1205 13.3967 11.0119 13.2497 9.90209L13.2754 9.88475L15.3034 12.4858C15.5531 10.6354 15.7993 8.81706 16.0443 7H16.0677C16.3361 8.82325 16.6033 10.6477 16.8763 12.5119L18.8098 9.9442L18.8401 9.95039C18.7375 11.0255 18.6348 12.1006 18.5286 13.2092L21.6569 11.1593L21.6814 11.1791L19.72 14.5382L22.8705 14.1258L22.881 14.1493L20.4364 16.1596L24 17.0675V17.1034L20.3571 18.0113L22.8331 20.0216L22.8215 20.0464L19.7398 19.6921L21.7608 23.1194L21.7456 23.1392C21.7025 23.107 21.6581 23.0748 21.6149 23.0401C20.8627 22.4202 20.0674 21.8617 19.2357 21.3692C18.8402 21.1283 18.4089 20.9608 17.9603 20.8738C17.4492 20.7933 17.0817 20.9915 16.853 21.4869C16.6719 21.9217 16.5653 22.3873 16.5379 22.8618C16.4399 23.8712 16.3594 24.8832 16.2625 25.8939C16.2264 26.2655 16.1634 26.6309 16.1132 27L16.0537 26.9975Z" fill="#FFEE00"/>
<path d="M43.116 4.54972V3.95479H44.326V5.17391C44.1376 5.32818 43.9306 5.45133 43.7113 5.53965C43.5059 5.60847 43.2923 5.64096 43.0782 5.63596C42.8241 5.64697 42.5714 5.58753 42.3424 5.46284C42.1522 5.34562 41.9987 5.16513 41.9027 4.94594C41.7944 4.70042 41.7407 4.42889 41.746 4.15473C41.74 3.87124 41.7988 3.59078 41.9167 3.34036C42.0296 3.10966 42.2043 2.92528 42.4159 2.8137C42.6349 2.71072 42.8713 2.66328 43.1084 2.67472C43.3207 2.66492 43.533 2.69373 43.7372 2.76006C43.871 2.81372 43.9902 2.90573 44.0829 3.02704C44.1808 3.16038 44.2512 3.31651 44.2893 3.48421L43.533 3.6366C43.5063 3.53761 43.4507 3.4517 43.3753 3.39278C43.2902 3.33191 43.1907 3.30172 43.09 3.30622C42.9332 3.29898 42.7822 3.37363 42.6806 3.5086C42.5776 3.6427 42.5264 3.85564 42.5272 4.14741C42.5272 4.45585 42.579 4.67773 42.6816 4.8094C42.7916 4.94605 42.9505 5.01912 43.1138 5.00811C43.1988 5.009 43.2835 4.9946 43.3645 4.96544C43.4603 4.92888 43.5521 4.87978 43.6378 4.81915V4.55094L43.116 4.54972Z" fill="#008848"/>
<path d="M46.2493 5.11299H45.3602L45.237 5.58479H44.4375L45.3904 2.72595H46.2439L47.1958 5.58479H46.3757L46.2493 5.11299ZM46.0894 4.49489L45.8096 3.46718L45.533 4.49489H46.0894Z" fill="#008848"/>
<path d="M47.3373 2.72595H48.367L48.7635 4.46563L49.1578 2.72595H50.1864V5.58479H49.5468V3.405L49.053 5.58479H48.4663L47.9737 3.405V5.58479H47.333L47.3373 2.72595Z" fill="#008848"/>
<path d="M50.6182 2.72595H51.4025V5.58479H50.6182V2.72595Z" fill="#008848"/>
<path d="M51.8706 2.72595H52.601L53.555 4.31081V2.72595H54.2929V5.58479H53.555L52.6064 4.01456V5.58479H51.8706V2.72595Z" fill="#008848"/>
<path d="M55.9877 4.54973V3.9548H57.1966V5.17392C57.0084 5.3279 56.8018 5.45103 56.583 5.53965C56.3776 5.60838 56.164 5.64086 55.9499 5.63596C55.6957 5.64723 55.4431 5.58777 55.2141 5.46285C55.0239 5.34531 54.8701 5.16495 54.7733 4.94594C54.6655 4.70023 54.6118 4.42884 54.6166 4.15474C54.6105 3.87108 54.6697 3.59048 54.7884 3.34036C54.9015 3.10902 55.0772 2.9245 55.2897 2.8137C55.5088 2.71072 55.7452 2.66328 55.9823 2.67473C56.1942 2.66491 56.4062 2.69372 56.61 2.76006C56.7439 2.81343 56.8631 2.90548 56.9557 3.02705C57.054 3.16009 57.1245 3.31632 57.1621 3.48422L56.4058 3.63661C56.3798 3.53721 56.324 3.45106 56.2481 3.39279C56.1634 3.33194 56.0642 3.30174 55.9639 3.30623C55.8067 3.29861 55.6552 3.37329 55.5534 3.5086C55.4518 3.64271 55.3999 3.85605 55.3999 4.14742C55.3999 4.43879 55.4518 4.67774 55.5555 4.8094C55.6655 4.94606 55.8244 5.01913 55.9877 5.00812C56.0727 5.00892 56.1573 4.99452 56.2383 4.96545C56.3338 4.92864 56.4251 4.87955 56.5106 4.81915V4.55095L55.9877 4.54973Z" fill="#008848"/>
<path d="M58.6479 2.72595H60.5829V3.33551H59.4345V3.83413H60.4155V4.41199H59.4345V5.57991H58.6479V2.72595Z" fill="#008848"/>
<path d="M60.8074 4.15481C60.8074 3.6883 60.9226 3.325 61.1531 3.06492C61.3836 2.80484 61.7041 2.6748 62.1147 2.6748C62.5371 2.6748 62.8612 2.80281 63.087 3.05761C63.3128 3.3124 63.4284 3.66717 63.4284 4.13165C63.4381 4.4151 63.3869 4.69698 63.2793 4.95334C63.1819 5.16419 63.0316 5.33802 62.8472 5.45318C62.6297 5.57933 62.3872 5.6406 62.1427 5.63117C61.8993 5.64073 61.657 5.58822 61.434 5.47756C61.2423 5.36992 61.0836 5.2001 60.9781 4.98991C60.8557 4.7339 60.7968 4.44543 60.8074 4.15481ZM61.5896 4.15481C61.5896 4.44415 61.6371 4.65181 61.7322 4.77778C61.834 4.89737 61.9747 4.96496 62.1217 4.96496C62.2687 4.96496 62.4093 4.89737 62.5112 4.77778C62.603 4.65587 62.6495 4.43277 62.6495 4.11215C62.6648 3.9023 62.6135 3.69313 62.5047 3.52209C62.4055 3.39735 62.262 3.32935 62.1136 3.33679C61.9678 3.33024 61.8274 3.39997 61.7333 3.52575C61.6368 3.65823 61.5889 3.86995 61.5896 4.16091V4.15481Z" fill="#008848"/>
<path d="M63.7646 5.5848V2.72597H65.0698C65.2566 2.71805 65.4435 2.74189 65.624 2.79668C65.7505 2.84176 65.8597 2.93369 65.9341 3.05757C66.0809 3.32254 66.0912 3.65581 65.9611 3.93168C65.9014 4.04727 65.8161 4.14345 65.7137 4.21086C65.6283 4.26537 65.5356 4.30367 65.4393 4.32423C65.5112 4.34872 65.5799 4.38398 65.6435 4.42908C65.6897 4.47448 65.7317 4.52514 65.7688 4.58025C65.8095 4.63532 65.8457 4.69449 65.8768 4.75702L66.2561 5.58602H65.3712L64.9531 4.71191C64.9198 4.62857 64.8716 4.55388 64.8116 4.49247C64.7554 4.44766 64.688 4.42418 64.6192 4.42542H64.5501V5.58602L63.7646 5.5848ZM64.5512 3.87804H64.8818C64.9519 3.87244 65.0213 3.85937 65.0892 3.83902C65.1398 3.8285 65.185 3.79669 65.2156 3.75003C65.2913 3.63339 65.2793 3.47173 65.1875 3.37088C65.0995 3.31158 64.9968 3.28592 64.8947 3.29774H64.5512V3.87804Z" fill="#008848"/>
<path d="M76.0166 5.47144H78.5015V9.48234L81.1096 5.47144H84.4221L81.4813 9.47868L84.5539 16.0863H81.4921L79.798 11.7206L78.5015 13.4957V16.0863H76.0166V5.47144Z" fill="#00884A"/>
<path d="M85.0625 5.47144H91.7372V7.73778H87.5582V9.42504H91.4347V11.5914H87.5582V13.6834H91.8582V16.0875H85.0625V5.47144Z" fill="#00884A"/>
<path d="M92.8784 5.47144H99.5531V7.73778H95.3752V9.42504H99.2506V11.5914H95.3752V13.6834H99.6774V16.0875H92.8817L92.8784 5.47144Z" fill="#00884A"/>
<path d="M100.689 5.47144H104.83C105.731 5.47144 106.406 5.7559 106.855 6.32482C107.305 6.89374 107.529 7.69755 107.528 8.73624C107.528 9.80743 107.284 10.645 106.795 11.2488C106.306 11.8527 105.559 12.1542 104.554 12.1534H103.191V16.0924H100.689V5.47144ZM103.191 9.9968H103.801C104.281 9.9968 104.618 9.88708 104.812 9.66764C105.008 9.44379 105.114 9.13856 105.104 8.82401C105.113 8.51456 105.023 8.21173 104.851 7.97063C104.683 7.739 104.365 7.62318 103.9 7.62318H103.191V9.9968Z" fill="#00884A"/>
<path d="M112.055 5.47144H114.551V16.0863H112.055V5.47144Z" fill="#00884A"/>
<path d="M115.457 5.47144H123.027V8.09254H120.487V16.0863H118.002V8.09254H115.462L115.457 5.47144Z" fill="#00884A"/>
<path d="M127.29 5.47144H133.448V7.75241H129.792V9.60547H132.915V11.7499H129.792V16.0863H127.291L127.29 5.47144Z" fill="#00884A"/>
<path d="M139.718 5.47144H142.203V11.7962C142.206 12.3974 142.131 12.9958 141.98 13.5725C141.841 14.1102 141.603 14.6086 141.281 15.0354C141.013 15.4104 140.672 15.711 140.284 15.9144C139.731 16.1656 139.138 16.2863 138.541 16.2692C138.112 16.2659 137.682 16.2297 137.257 16.1607C136.847 16.1086 136.451 15.9616 136.094 15.7291C135.76 15.4898 135.469 15.1792 135.24 14.8148C134.995 14.451 134.814 14.037 134.709 13.5956C134.566 13.0107 134.489 12.4078 134.478 11.8011V5.47144H136.963V11.9462C136.963 12.5257 137.085 12.978 137.328 13.3031C137.592 13.6143 137.957 13.791 138.339 13.7924C138.72 13.7937 139.086 13.6197 139.352 13.3104C139.596 12.9901 139.718 12.5354 139.717 11.9462L139.718 5.47144Z" fill="#00884A"/>
<path d="M143.555 5.47144H145.88L148.915 11.3476V5.47144H151.262V16.0863H148.915L145.897 10.2577V16.0863H143.555V5.47144Z" fill="#00884A"/>
<path d="M78.307 23.4595V22.433H80.3479V24.5348C80.0308 24.7984 79.6819 25.0094 79.3118 25.1614C78.9652 25.28 78.6043 25.3363 78.2422 25.3285C77.7344 25.3285 77.3217 25.2285 77.0008 25.0286C76.6778 24.8254 76.4181 24.5146 76.2575 24.1386C76.0759 23.7153 75.9856 23.2495 75.9939 22.7793C75.9835 22.2916 76.0827 21.8088 76.2824 21.3761C76.4724 20.9808 76.7686 20.6637 77.1283 20.4703C77.4164 20.3077 77.8061 20.2264 78.2973 20.2264C78.7705 20.2264 79.1242 20.276 79.3583 20.3752C79.5852 20.4672 79.7865 20.6253 79.9417 20.8336C80.1068 21.065 80.2255 21.3341 80.2896 21.6223L79.0158 21.8844C78.972 21.712 78.8779 21.5613 78.7489 21.4565C78.6058 21.3532 78.438 21.3017 78.2681 21.309C78.0018 21.2972 77.7457 21.4261 77.5756 21.6577C77.4042 21.8893 77.3181 22.2551 77.3174 22.7549C77.3174 23.2876 77.4049 23.6692 77.5789 23.8972C77.7625 24.1309 78.0307 24.257 78.307 24.2398C78.4504 24.2405 78.5929 24.2158 78.7295 24.1666C78.8909 24.1017 79.0456 24.0171 79.1908 23.9143V23.451L78.307 23.4595Z" fill="#FFE403"/>
<path d="M84.2748 24.43H82.7752L82.5667 25.2455H81.2173L82.8228 20.3154H84.264L85.8727 25.2455H84.4887L84.2748 24.43ZM84.0004 23.3644L83.5293 21.5882L83.0615 23.3596L84.0004 23.3644Z" fill="#FFE403"/>
<path d="M86.791 20.3154H88.5294L89.1992 23.3145L89.8648 20.3154H91.601V25.2455H90.5206V21.4858L89.6854 25.2455H88.7055L87.8736 21.487V25.2455H86.7932L86.791 20.3154Z" fill="#FFE403"/>
<path d="M92.9551 20.3154H96.4956V21.3675H94.2753V22.1514H96.3281V23.156H94.2753V24.1313H96.5561V25.2455H92.9551V20.3154Z" fill="#FFE403"/>
<path d="M100.308 25.2456V20.3154H102.511C102.827 20.3029 103.142 20.344 103.447 20.4374C103.661 20.5166 103.844 20.6752 103.969 20.8872C104.106 21.1236 104.175 21.402 104.167 21.6845C104.173 21.9317 104.121 22.1762 104.015 22.3928C103.915 22.593 103.772 22.7609 103.598 22.8805C103.453 22.972 103.297 23.0378 103.134 23.0755C103.256 23.1166 103.372 23.1778 103.478 23.2572C103.559 23.3338 103.631 23.4205 103.694 23.5156C103.764 23.611 103.826 23.7134 103.879 23.8216L104.518 25.2504H103.026L102.321 23.7436C102.265 23.6 102.183 23.4709 102.081 23.3645C101.987 23.2879 101.873 23.2477 101.757 23.2499H101.64V25.2456H100.308ZM101.636 22.3136H102.192C102.311 22.3035 102.428 22.281 102.542 22.2465C102.629 22.2271 102.706 22.1719 102.758 22.0917C102.813 22.0097 102.843 21.9093 102.842 21.8064C102.849 21.6683 102.8 21.5339 102.71 21.4407C102.623 21.3554 102.458 21.3127 102.217 21.3127H101.637L101.636 22.3136Z" fill="#FFE403"/>
<path d="M105.448 20.3154H108.989V21.3675H106.772V22.1514H108.825V23.156H106.772V24.1313H109.053V25.2455H105.448V20.3154Z" fill="#FFE403"/>
<path d="M110.049 23.6131L111.306 23.5229C111.32 23.7152 111.377 23.9003 111.472 24.0605C111.611 24.2622 111.829 24.3742 112.055 24.3604C112.211 24.3708 112.365 24.3161 112.487 24.2068C112.583 24.1201 112.639 23.9901 112.641 23.8521C112.639 23.7194 112.585 23.5943 112.495 23.5095C112.398 23.4087 112.172 23.3132 111.817 23.223C111.241 23.0735 110.828 22.8743 110.578 22.6256C110.334 22.3871 110.197 22.0378 110.205 21.6735C110.206 21.4184 110.272 21.1688 110.396 20.9554C110.536 20.7181 110.736 20.5334 110.97 20.4251C111.305 20.2802 111.663 20.2142 112.022 20.2313C112.568 20.2313 112.985 20.3483 113.272 20.5824C113.559 20.8177 113.729 21.1919 113.784 21.7003L112.538 21.7844C112.523 21.5989 112.449 21.4258 112.33 21.2968C112.204 21.1886 112.048 21.1349 111.891 21.1456C111.767 21.1356 111.644 21.1753 111.544 21.2578C111.47 21.3243 111.427 21.4253 111.427 21.5321C111.429 21.6156 111.465 21.6937 111.524 21.7442C111.585 21.8088 111.733 21.8661 111.967 21.9259C112.545 22.0685 112.957 22.2136 113.208 22.3611C113.43 22.4821 113.617 22.6714 113.748 22.9072C113.864 23.1286 113.923 23.3817 113.92 23.6387C113.921 23.949 113.842 24.2529 113.692 24.5128C113.538 24.783 113.317 24.9952 113.056 25.1224C112.729 25.272 112.378 25.3426 112.026 25.3296C111.299 25.3296 110.795 25.1671 110.513 24.842C110.234 24.5078 110.069 24.0721 110.049 23.6131Z" fill="#FFE403"/>
<path d="M115.1 20.3154H117.296C117.775 20.3154 118.135 20.4467 118.377 20.7092C118.619 20.9717 118.738 21.3448 118.733 21.8284C118.733 22.3258 118.604 22.7147 118.344 22.9951C118.085 23.2755 117.689 23.4156 117.156 23.4156H116.423V25.2443H115.097L115.1 20.3154ZM116.423 22.4172H116.748C117.003 22.4172 117.18 22.366 117.288 22.2636C117.389 22.166 117.446 22.0223 117.442 21.8722C117.445 21.7263 117.397 21.585 117.308 21.4785C117.219 21.3712 117.05 21.3175 116.804 21.3175H116.423V22.4172Z" fill="#FFE403"/>
<path d="M119.773 22.7829C119.773 21.9783 119.967 21.3521 120.356 20.9043C120.745 20.4565 121.285 20.2321 121.977 20.2313C122.688 20.2313 123.237 20.4516 123.622 20.8921C124.008 21.3326 124.2 21.9495 124.199 22.7427C124.199 23.3189 124.115 23.7912 123.948 24.1593C123.785 24.5212 123.531 24.8207 123.218 25.02C122.853 25.2387 122.443 25.3451 122.03 25.3285C121.618 25.3447 121.208 25.2538 120.833 25.0627C120.507 24.876 120.239 24.5828 120.063 24.2215C119.856 23.7792 119.756 23.283 119.773 22.7829ZM121.094 22.7903C121.094 23.2877 121.174 23.6449 121.334 23.8619C121.503 24.0688 121.74 24.1872 121.989 24.1886C122.239 24.19 122.477 24.0742 122.648 23.8692C122.803 23.6558 122.882 23.2742 122.882 22.7232C122.882 22.2587 122.8 21.9198 122.638 21.7052C122.473 21.4902 122.23 21.3721 121.978 21.3846C121.731 21.3745 121.493 21.4954 121.336 21.7113C121.169 21.9283 121.089 22.288 121.089 22.7903H121.094Z" fill="#FFE403"/>
<path d="M125.432 20.3154H126.665L128.275 23.0426V20.3154H129.521V25.2455H128.275L126.674 22.5391V25.2455H125.432V20.3154Z" fill="#FFE403"/>
<path d="M130.685 23.6131L131.942 23.5228C131.955 23.7153 132.013 23.9007 132.109 24.0605C132.248 24.2621 132.466 24.3741 132.692 24.3604C132.848 24.3711 133.002 24.3164 133.124 24.2068C133.22 24.1204 133.276 23.9902 133.278 23.852C133.275 23.7193 133.222 23.5942 133.132 23.5094C133.034 23.4087 132.809 23.3132 132.455 23.2229C131.875 23.0734 131.461 22.8743 131.215 22.6256C130.971 22.387 130.834 22.0377 130.842 21.6734C130.843 21.4182 130.909 21.1686 131.034 20.9554C131.174 20.7177 131.374 20.533 131.608 20.4251C131.943 20.2799 132.301 20.2139 132.66 20.2312C133.206 20.2312 133.622 20.3483 133.908 20.5823C134.195 20.8164 134.366 21.189 134.421 21.7003L133.176 21.7844C133.16 21.599 133.086 21.426 132.967 21.2967C132.842 21.1887 132.686 21.1351 132.528 21.1456C132.404 21.1356 132.281 21.1753 132.181 21.2577C132.107 21.3243 132.064 21.4253 132.064 21.532C132.066 21.6154 132.102 21.6933 132.16 21.7442C132.294 21.841 132.446 21.903 132.603 21.9258C133.18 22.068 133.593 22.2131 133.845 22.361C134.067 22.4822 134.254 22.6715 134.385 22.9072C134.5 23.1289 134.559 23.3818 134.556 23.6387C134.558 23.949 134.478 24.2531 134.328 24.5128C134.174 24.7828 133.953 24.9951 133.692 25.1223C133.366 25.2718 133.015 25.3424 132.663 25.3296C131.936 25.3296 131.432 25.167 131.15 24.8419C130.87 24.5079 130.705 24.0722 130.685 23.6131Z" fill="#FFE403"/>
<path d="M135.792 20.3154H137.117V25.2455H135.792V20.3154Z" fill="#FFE403"/>
<path d="M138.58 20.3154H141.056C141.468 20.3154 141.784 20.4333 142.005 20.669C142.222 20.8929 142.343 21.2114 142.337 21.5431C142.342 21.8173 142.258 22.0842 142.1 22.2928C141.975 22.4466 141.816 22.5602 141.64 22.622C141.903 22.678 142.142 22.8326 142.317 23.0609C142.467 23.2855 142.543 23.5615 142.533 23.8423C142.537 24.0833 142.484 24.3211 142.379 24.5311C142.279 24.7335 142.133 24.902 141.956 25.0188C141.8 25.1084 141.63 25.1635 141.455 25.1809C141.259 25.2145 141.061 25.2368 140.863 25.248H138.581L138.58 20.3154ZM139.913 22.249H140.488C140.694 22.249 140.838 22.2075 140.92 22.127C141.005 22.0347 141.049 21.9049 141.041 21.7723C141.047 21.6454 141.003 21.5221 140.92 21.4358C140.797 21.3409 140.648 21.2977 140.499 21.3139H139.915L139.913 22.249ZM139.913 24.1849H140.587C140.814 24.1849 140.975 24.1386 141.068 24.0459C141.163 23.9509 141.214 23.8131 141.209 23.6704C141.213 23.5357 141.162 23.4064 141.07 23.3193C140.977 23.2303 140.815 23.1865 140.584 23.1865H139.913V24.1849Z" fill="#FFE403"/>
<path d="M143.738 20.3154H145.06V24.0264H147.121V25.2455H143.738V20.3154Z" fill="#FFE403"/>
<path d="M147.343 20.3154H148.81L149.675 21.9783L150.539 20.3154H152L150.337 23.1804V25.2455H149.008V23.1804L147.343 20.3154Z" fill="#FFE403"/>
<path d="M78.5014 32.8041L77.6489 29.8965H78.3415L78.846 31.802L79.3095 29.8965H79.9966L80.4461 31.8007L80.9604 29.8953H81.6626L80.7983 32.8029H80.122L79.6574 30.9327L79.1961 32.8041H78.5014Z" fill="#008849"/>
<path d="M82.89 32.8041L82.0376 29.8965H82.7301L83.2347 31.802L83.6982 29.8965H84.3853L84.8337 31.802L85.348 29.8965H86.0502L85.1859 32.8041H84.502L84.0374 30.934L83.5793 32.8041H82.89Z" fill="#008849"/>
<path d="M87.2742 32.8041L86.4229 29.8965H87.1154L87.6189 31.802L88.0834 29.8965H88.7652L89.2146 31.802L89.7375 29.8953H90.4398L89.5755 32.8029H88.8905L88.427 30.9327L87.9667 32.8041H87.2742Z" fill="#008849"/>
<path d="M92.7344 29.8953H93.3988V30.322C93.4881 30.1729 93.6083 30.0508 93.7489 29.966C93.8989 29.8739 94.0675 29.8269 94.2383 29.8294C94.5419 29.8254 94.8321 29.9704 95.0335 30.2269C95.2496 30.491 95.3576 30.8596 95.3576 31.3326C95.3576 31.8203 95.2496 32.1978 95.0335 32.4652C94.8323 32.7247 94.5406 32.8721 94.2351 32.8687C94.0957 32.8713 93.9575 32.8384 93.831 32.7724C93.6874 32.6899 93.5582 32.5788 93.4496 32.4445V33.9074H92.7365L92.7344 29.8953ZM93.4399 31.2997C93.4399 31.6248 93.4997 31.8662 93.6192 32.0239C93.7262 32.1732 93.8877 32.2594 94.0579 32.2579C94.2172 32.2609 94.3691 32.182 94.4706 32.0434C94.5786 31.8995 94.6359 31.6654 94.6359 31.3387C94.6359 31.0327 94.5786 30.8072 94.4663 30.6597C94.3633 30.5168 94.2081 30.435 94.0449 30.4378C93.8794 30.4338 93.7209 30.5134 93.6127 30.6548C93.4867 30.8384 93.4251 31.068 93.4399 31.2997Z" fill="#008849"/>
<path d="M96.8052 30.7826L96.157 30.6607C96.212 30.4089 96.345 30.1875 96.5319 30.0365C96.7102 29.9012 96.9727 29.8342 97.3227 29.8342C97.5643 29.8195 97.8059 29.861 98.0326 29.9561C98.1664 30.0189 98.2797 30.1271 98.3567 30.2657C98.4204 30.3876 98.4518 30.6205 98.4518 30.9545L98.4442 31.8518C98.4393 32.0412 98.4508 32.2307 98.4788 32.4175C98.5059 32.5533 98.5488 32.6844 98.6063 32.8076H97.9018C97.8835 32.7564 97.8597 32.6857 97.8327 32.5808C97.826 32.5502 97.8178 32.5201 97.8079 32.4906C97.6942 32.6119 97.5621 32.7089 97.4178 32.7771C97.2769 32.8421 97.126 32.8748 96.9738 32.8734C96.736 32.8888 96.502 32.8016 96.3191 32.6296C96.1635 32.4761 96.0758 32.2531 96.0792 32.02C96.0769 31.8647 96.1144 31.7118 96.1872 31.5799C96.2616 31.4502 96.3678 31.3476 96.493 31.2849C96.6747 31.2 96.8648 31.1399 97.0591 31.1057C97.2941 31.0658 97.5255 31.0025 97.7506 30.9167V30.8399C97.7611 30.7226 97.7242 30.6061 97.6501 30.523C97.5342 30.4469 97.4 30.4141 97.2666 30.4291C97.163 30.4225 97.0601 30.4505 96.9705 30.5096C96.8924 30.5798 96.8348 30.675 96.8052 30.7826ZM97.7582 31.4068C97.616 31.4556 97.4718 31.4963 97.326 31.5287C97.1915 31.5515 97.0608 31.5967 96.9381 31.6628C96.8527 31.7196 96.7998 31.8228 96.7988 31.9347C96.7971 32.0411 96.8365 32.143 96.9068 32.2139C96.9832 32.2951 97.0849 32.3389 97.1899 32.3358C97.3219 32.3346 97.4504 32.2869 97.5572 32.1993C97.6378 32.1384 97.698 32.0486 97.7279 31.9445C97.751 31.8211 97.7601 31.6949 97.7549 31.569L97.7582 31.4068Z" fill="#008849"/>
<path d="M99.4428 32.9942L100.256 33.1015C100.26 33.1834 100.294 33.2598 100.349 33.3124C100.447 33.3762 100.56 33.4047 100.673 33.3941C100.817 33.4044 100.961 33.3734 101.091 33.3039C101.157 33.2601 101.208 33.1915 101.233 33.11C101.261 32.995 101.272 32.8756 101.266 32.7565V32.3322C101.083 32.6296 100.782 32.8057 100.46 32.8028C100.116 32.8164 99.7898 32.6295 99.5962 32.3079C99.4233 32.021 99.3363 31.6792 99.3477 31.3326C99.3477 30.8449 99.4557 30.4727 99.6718 30.2159C99.8806 29.9624 100.175 29.8218 100.482 29.8294C100.809 29.8255 101.116 30.0028 101.305 30.3036V29.8952H101.972V32.5041C101.982 32.764 101.955 33.024 101.893 33.2746C101.852 33.4261 101.778 33.5633 101.677 33.6733C101.567 33.7802 101.438 33.8581 101.298 33.9013C101.102 33.9612 100.901 33.9887 100.698 33.9829C100.242 33.9829 99.9181 33.8988 99.7258 33.7306C99.5442 33.581 99.4377 33.3418 99.4395 33.0881C99.4395 33.0625 99.4406 33.0308 99.4428 32.9942ZM100.078 31.2875C100.078 31.5959 100.134 31.8214 100.244 31.9653C100.345 32.1035 100.496 32.1825 100.654 32.1799C100.822 32.1828 100.983 32.1026 101.095 31.9604C101.226 31.7761 101.29 31.5427 101.275 31.307C101.275 31.0058 101.218 30.7815 101.102 30.6365C100.994 30.4943 100.836 30.4138 100.67 30.417C100.508 30.4133 100.353 30.4921 100.248 30.6316C100.123 30.8205 100.063 31.0538 100.078 31.2887V31.2875Z" fill="#008849"/>
<path d="M105.373 30.7547L104.672 30.8913C104.657 30.7591 104.6 30.6377 104.511 30.5499C104.418 30.4699 104.304 30.4289 104.187 30.4341C104.026 30.4266 103.871 30.4993 103.762 30.6328C103.654 30.7657 103.605 30.9864 103.605 31.2972C103.605 31.6423 103.658 31.8861 103.766 32.0287C103.873 32.1708 104.032 32.2494 104.198 32.2421C104.318 32.2483 104.436 32.205 104.529 32.1202C104.63 32.0036 104.695 31.8528 104.712 31.691L105.411 31.8203C105.359 32.1297 105.21 32.408 104.993 32.6054C104.75 32.7948 104.459 32.8883 104.164 32.8711C103.815 32.8904 103.474 32.7446 103.223 32.4688C102.989 32.2006 102.872 31.8292 102.872 31.3545C102.872 30.8799 102.989 30.506 103.224 30.233C103.479 29.9567 103.824 29.8115 104.177 29.8319C104.452 29.8158 104.725 29.8954 104.959 30.0598C105.163 30.2319 105.309 30.4769 105.373 30.7547Z" fill="#008849"/>
<path d="M106.097 31.3081C106.097 31.0479 106.157 30.7923 106.271 30.5657C106.383 30.331 106.556 30.1402 106.767 30.0183C106.988 29.8905 107.234 29.8256 107.483 29.8294C107.854 29.8135 108.215 29.9679 108.483 30.2573C109.007 30.8629 109.007 31.829 108.483 32.4346C108.218 32.7249 107.86 32.8815 107.49 32.8686C107.246 32.8692 107.005 32.8075 106.785 32.6882C106.57 32.5762 106.391 32.3907 106.274 32.1579C106.151 31.8968 106.09 31.6039 106.097 31.3081ZM106.826 31.3496C106.812 31.5896 106.88 31.8266 107.016 32.0116C107.137 32.1584 107.307 32.2418 107.485 32.2418C107.662 32.2418 107.832 32.1584 107.953 32.0116C108.089 31.8241 108.157 31.5852 108.142 31.3435C108.156 31.1053 108.088 30.8702 107.953 30.6864C107.832 30.5396 107.662 30.4562 107.485 30.4562C107.307 30.4562 107.137 30.5396 107.016 30.6864C106.88 30.8717 106.812 31.1092 106.826 31.3496Z" fill="#008849"/>
<path d="M110.462 32.8041H109.75V29.8953H110.411V30.3086C110.488 30.1577 110.592 30.0262 110.716 29.9221C110.809 29.8594 110.916 29.8274 111.024 29.8294C111.189 29.8303 111.35 29.8803 111.493 29.9745L111.277 30.645C111.178 30.5701 111.062 30.5279 110.943 30.5231C110.852 30.5196 110.762 30.551 110.689 30.6121C110.606 30.6977 110.549 30.8102 110.526 30.934C110.474 31.2555 110.454 31.5827 110.466 31.9093L110.462 32.8041Z" fill="#008849"/>
<path d="M113.63 29.8953H114.295V30.322C114.384 30.1729 114.503 30.0506 114.644 29.966C114.794 29.8739 114.962 29.8269 115.133 29.8294C115.437 29.8254 115.728 29.9704 115.929 30.2269C116.146 30.491 116.254 30.8596 116.254 31.3326C116.254 31.8203 116.146 32.1978 115.929 32.4652C115.729 32.7251 115.437 32.8726 115.131 32.8687C114.992 32.8711 114.854 32.8381 114.727 32.7724C114.584 32.6896 114.454 32.5785 114.346 32.4445V33.9074H113.634L113.63 29.8953ZM114.335 31.2997C114.335 31.6248 114.395 31.8662 114.515 32.0239C114.622 32.1732 114.784 32.2594 114.954 32.2579C115.113 32.2608 115.265 32.1818 115.367 32.0434C115.475 31.8995 115.531 31.6654 115.531 31.3387C115.531 31.0327 115.475 30.8072 115.361 30.6597C115.259 30.5168 115.104 30.435 114.941 30.4378C114.775 30.4338 114.617 30.5134 114.509 30.6548C114.382 30.8379 114.32 31.0678 114.335 31.2997Z" fill="#008849"/>
<path d="M117.879 28.7882V30.2646C118.082 29.9882 118.385 29.8287 118.703 29.8293C118.855 29.8267 119.006 29.8603 119.146 29.9281C119.263 29.9814 119.366 30.0679 119.444 30.1792C119.511 30.2805 119.557 30.3964 119.581 30.5194C119.61 30.7102 119.622 30.9038 119.617 31.0972V32.804H118.908V31.2679C118.918 31.0733 118.904 30.8782 118.868 30.6876C118.842 30.6057 118.791 30.5365 118.725 30.4913C118.647 30.4406 118.557 30.4157 118.467 30.4194C118.356 30.4171 118.247 30.4492 118.151 30.512C118.056 30.5764 117.984 30.6754 117.947 30.7924C117.897 30.9717 117.875 31.1594 117.882 31.3471V32.804H117.17V28.7882H117.879Z" fill="#008849"/>
<path d="M120.313 32.8711L121.233 28.72H121.774L120.843 32.8711H120.313Z" fill="#008849"/>
<path d="M123.16 32.8041H122.448V29.8953H123.109V30.3086C123.186 30.1577 123.29 30.0262 123.414 29.9221C123.507 29.8593 123.614 29.8272 123.723 29.8295C123.887 29.8306 124.049 29.8807 124.192 29.9745L123.97 30.645C123.871 30.5701 123.755 30.5279 123.636 30.5231C123.545 30.5196 123.456 30.551 123.382 30.6121C123.3 30.6977 123.243 30.8102 123.219 30.934C123.167 31.2555 123.147 31.5827 123.16 31.9093V32.8041Z" fill="#008849"/>
<path d="M126.404 31.8775L127.114 32.0067C127.036 32.2679 126.884 32.4931 126.682 32.648C126.461 32.803 126.203 32.8798 125.943 32.8686C125.475 32.8686 125.129 32.7036 124.904 32.3737C124.719 32.0816 124.626 31.7287 124.638 31.3703C124.638 30.8892 124.754 30.5121 124.988 30.239C125.218 29.9672 125.539 29.8183 125.872 29.8294C126.228 29.8092 126.574 29.9655 126.82 30.2573C127.051 30.5434 127.162 30.981 127.152 31.5703H125.367C125.361 31.7664 125.423 31.9574 125.54 32.103C125.647 32.2286 125.796 32.2976 125.95 32.2932C126.051 32.2969 126.15 32.2625 126.231 32.1957C126.317 32.113 126.378 32.0015 126.404 31.8775ZM126.444 31.0997C126.451 30.9135 126.394 30.7314 126.285 30.5913C126.185 30.4782 126.048 30.4156 125.905 30.4174C125.763 30.4192 125.628 30.4854 125.529 30.6011C125.423 30.7387 125.369 30.9177 125.379 31.0997H126.444Z" fill="#008849"/>
<path d="M128.014 32.9942L128.827 33.1015C128.832 33.1834 128.866 33.2596 128.921 33.3124C129.019 33.3766 129.133 33.4051 129.246 33.3941C129.39 33.4045 129.534 33.3735 129.665 33.3039C129.73 33.2591 129.78 33.1908 129.806 33.11C129.833 32.9948 129.844 32.8755 129.839 32.7565V32.3322C129.655 32.6296 129.354 32.8057 129.033 32.8028C128.688 32.8159 128.362 32.6291 128.168 32.3079C127.996 32.0207 127.909 31.6792 127.92 31.3326C127.92 30.8449 128.028 30.4727 128.244 30.2158C128.452 29.9626 128.747 29.8219 129.053 29.8294C129.38 29.8258 129.688 30.0029 129.878 30.3036V29.8952H130.544V32.5041C130.553 32.764 130.527 33.0239 130.465 33.2746C130.424 33.4256 130.349 33.5626 130.249 33.6733C130.139 33.7797 130.01 33.8576 129.87 33.9012C129.675 33.9613 129.473 33.9888 129.27 33.9829C128.814 33.9829 128.49 33.8988 128.298 33.7306C128.116 33.5813 128.009 33.3419 128.012 33.0881C128.012 33.0625 128.012 33.0308 128.014 32.9942ZM128.65 31.2874C128.65 31.5963 128.706 31.8222 128.817 31.9653C128.917 32.1034 129.067 32.1824 129.225 32.1798C129.394 32.1828 129.555 32.1026 129.667 31.9604C129.798 31.7759 129.862 31.5425 129.846 31.307C129.846 31.0058 129.789 30.7815 129.674 30.6364C129.566 30.4945 129.408 30.4141 129.242 30.417C129.08 30.4137 128.926 30.4924 128.821 30.6316C128.707 30.7795 128.65 30.9985 128.65 31.2887V31.2874Z" fill="#008849"/>
<path d="M133.369 32.8041V32.3689C133.27 32.5255 133.138 32.6513 132.984 32.7346C132.827 32.823 132.654 32.8689 132.478 32.8687C132.309 32.8738 132.142 32.8319 131.991 32.7468C131.854 32.6677 131.744 32.5389 131.68 32.381C131.607 32.1767 131.574 31.9572 131.584 31.7374V29.8953H132.296V31.2363C132.285 31.4875 132.298 31.7392 132.334 31.9873C132.359 32.0768 132.409 32.1542 132.478 32.2067C132.557 32.2634 132.649 32.2915 132.742 32.2872C132.857 32.2886 132.97 32.2513 133.066 32.1799C133.155 32.1165 133.225 32.0226 133.264 31.9117C133.299 31.8044 133.318 31.546 133.318 31.1266V29.8953H134.034V32.8041H133.369Z" fill="#008849"/>
<path d="M135.114 32.804V28.7882H135.826V32.804H135.114Z" fill="#008849"/>
<path d="M137.44 30.7828L136.791 30.6609C136.847 30.4089 136.98 30.1876 137.167 30.0367C137.344 29.901 137.608 29.8335 137.957 29.8343C138.199 29.8196 138.44 29.8611 138.667 29.9562C138.801 30.0188 138.914 30.1271 138.991 30.2659C139.055 30.3878 139.086 30.6207 139.086 30.9547L139.078 31.852C139.074 32.0413 139.086 32.2307 139.113 32.4176C139.14 32.5534 139.183 32.6846 139.241 32.8078H138.536C138.517 32.7565 138.495 32.681 138.468 32.581C138.456 32.5347 138.448 32.5054 138.442 32.4908C138.329 32.6122 138.196 32.7093 138.052 32.7773C137.911 32.8423 137.76 32.875 137.608 32.8736C137.37 32.8889 137.136 32.8018 136.953 32.6298C136.798 32.4763 136.71 32.2533 136.713 32.0202C136.711 31.8648 136.749 31.712 136.822 31.5801C136.896 31.4503 137.002 31.3478 137.127 31.2851C137.309 31.2002 137.499 31.14 137.693 31.1059C137.929 31.0657 138.16 31.0025 138.386 30.9169V30.8401C138.396 30.7226 138.359 30.6062 138.284 30.5231C138.169 30.4472 138.035 30.4143 137.902 30.4292C137.798 30.4225 137.695 30.4505 137.605 30.5097C137.526 30.5796 137.469 30.6749 137.44 30.7828ZM138.392 31.407C138.301 31.4395 138.157 31.4801 137.96 31.5289C137.826 31.5516 137.696 31.5968 137.573 31.663C137.488 31.7198 137.435 31.8229 137.434 31.9349C137.432 32.0412 137.472 32.1431 137.542 32.214C137.619 32.2953 137.721 32.3391 137.826 32.336C137.958 32.3346 138.087 32.2869 138.194 32.1994C138.274 32.1383 138.334 32.0486 138.363 31.9446C138.387 31.8213 138.396 31.6951 138.391 31.5691L138.392 31.407Z" fill="#008849"/>
<path d="M141.381 29.8951V30.5047H140.895V31.6763C140.89 31.8151 140.895 31.954 140.909 32.092C140.918 32.1318 140.941 32.1661 140.971 32.1883C141.007 32.215 141.05 32.2286 141.092 32.2273C141.191 32.2196 141.287 32.1945 141.379 32.153L141.439 32.7503C141.26 32.8298 141.069 32.8687 140.876 32.8649C140.758 32.8669 140.64 32.8433 140.53 32.7954C140.441 32.7599 140.362 32.6975 140.303 32.615C140.246 32.5264 140.208 32.4242 140.193 32.3163C140.173 32.1364 140.165 31.955 140.17 31.7738V30.5059H139.846V29.8964H140.17V29.3173L140.885 28.8687V29.8951H141.381Z" fill="#008849"/>
<path d="M142.053 31.3082C142.054 31.0479 142.114 30.7923 142.228 30.5658C142.34 30.3311 142.513 30.1403 142.724 30.0184C142.945 29.8904 143.19 29.8256 143.439 29.8295C143.81 29.8138 144.171 29.9681 144.44 30.2574C144.963 30.8632 144.963 31.8288 144.44 32.4347C144.176 32.7249 143.818 32.8815 143.449 32.8687C143.204 32.8693 142.963 32.8076 142.743 32.6883C142.527 32.5767 142.349 32.3911 142.232 32.158C142.108 31.8971 142.046 31.6042 142.053 31.3082ZM142.783 31.3497C142.768 31.5898 142.837 31.827 142.973 32.0117C143.092 32.1617 143.264 32.2458 143.442 32.2421C143.62 32.246 143.791 32.1618 143.909 32.0117C144.045 31.8245 144.113 31.5854 144.098 31.3436C144.112 31.1053 144.044 30.87 143.909 30.6865C143.791 30.5363 143.62 30.4521 143.442 30.4561C143.264 30.4524 143.092 30.5365 142.973 30.6865C142.837 30.8719 142.77 31.1095 142.785 31.3497H142.783Z" fill="#008849"/>
<path d="M146.417 32.8041H145.702V29.8953H146.363V30.3086C146.441 30.1573 146.545 30.0258 146.669 29.9221C146.762 29.8594 146.869 29.8274 146.977 29.8294C147.142 29.8304 147.304 29.8805 147.446 29.9745L147.23 30.645C147.13 30.5699 147.014 30.5277 146.895 30.5231C146.804 30.5198 146.715 30.5512 146.642 30.6121C146.559 30.6971 146.501 30.8098 146.478 30.934C146.426 31.2556 146.406 31.5827 146.418 31.9093L146.417 32.8041Z" fill="#008849"/>
<path d="M147.767 29.8953H148.523L149.172 31.9592L149.8 29.8953H150.537L149.588 32.6931L149.418 33.2003C149.371 33.3369 149.311 33.4673 149.239 33.5892C149.186 33.6744 149.12 33.748 149.044 33.8062C148.961 33.8671 148.869 33.9112 148.773 33.9366C148.654 33.9694 148.531 33.985 148.409 33.983C148.273 33.9836 148.138 33.968 148.006 33.9366L147.942 33.3344C148.041 33.3564 148.142 33.3682 148.244 33.3698C148.381 33.3824 148.516 33.3247 148.612 33.2125C148.697 33.0946 148.759 32.958 148.793 32.8114L147.767 29.8953Z" fill="#008849"/>
<path d="M41.479 26.2501H42.3487L42.8587 27.2144L43.3697 26.2501H44.234L43.2487 27.9118V29.109H42.4643V27.9118L41.479 26.2501Z" fill="#008749"/>
<path d="M44.3867 26.2501H46.4849V26.8597H45.1711V27.3181H46.3898V27.9008H45.1711V28.4653H46.5216V29.1126H44.3867V26.2501Z" fill="#008749"/>
<path d="M48.4026 28.6372H47.5145L47.3859 29.109H46.5864L47.5393 26.2501H48.3929L49.3447 29.109H48.5247L48.4026 28.6372ZM48.2405 28.0191L47.9607 26.9913L47.6841 28.0191H48.2405Z" fill="#008749"/>
<path d="M49.5088 29.1089V26.2501H50.8139C51.0007 26.2425 51.1874 26.2659 51.3682 26.3195C51.4943 26.3652 51.6034 26.457 51.6782 26.5804C51.8251 26.8454 51.8354 27.1787 51.7052 27.4545C51.6452 27.5699 51.56 27.666 51.4578 27.7337C51.3721 27.7872 51.2795 27.8254 51.1834 27.8471C51.2553 27.8716 51.324 27.9068 51.3876 27.9519C51.4339 27.9973 51.4759 28.048 51.5129 28.1031C51.5537 28.1582 51.5898 28.2174 51.621 28.2799L52.0002 29.1089H51.1153L50.6972 28.2348C50.6639 28.1511 50.6157 28.076 50.5557 28.0141C50.4991 27.9704 50.432 27.9474 50.3634 27.9483H50.2942V29.1089H49.5088ZM50.2953 27.4082H50.627C50.697 27.402 50.7664 27.3889 50.8344 27.3692C50.8852 27.3583 50.9303 27.326 50.9608 27.279C50.9941 27.232 51.0117 27.1733 51.0105 27.1132C51.0147 27.0328 50.9861 26.9546 50.9328 26.9011C50.8452 26.8413 50.7429 26.8153 50.641 26.8267H50.2964L50.2953 27.4082Z" fill="#008749"/>
<path d="M52.0161 28.1629L52.7605 28.1105C52.7685 28.2224 52.8024 28.33 52.8588 28.4226C52.9427 28.5396 53.0713 28.6041 53.2046 28.5957C53.2974 28.6029 53.3893 28.5712 53.4628 28.5067C53.5186 28.4585 53.5514 28.3837 53.5514 28.3043C53.5514 28.225 53.5186 28.1501 53.4628 28.1019C53.3412 28.0149 53.2045 27.9583 53.0619 27.9361C52.7184 27.8496 52.4742 27.7338 52.3273 27.5899C52.1852 27.4519 52.1058 27.2491 52.1112 27.0376C52.1105 26.8901 52.148 26.7456 52.2192 26.6219C52.303 26.4828 52.422 26.3753 52.5606 26.3135C52.7594 26.2297 52.971 26.1915 53.1829 26.2013C53.5071 26.2013 53.7534 26.2696 53.9241 26.4049C54.1037 26.5612 54.2141 26.798 54.2266 27.0535L53.4887 27.1023C53.4837 26.9951 53.4396 26.8951 53.367 26.8258C53.2944 26.7566 53.1996 26.7243 53.1052 26.7365C53.0321 26.73 52.9594 26.7529 52.8999 26.8011C52.8561 26.8389 52.8306 26.8975 52.8307 26.9596C52.832 27.0081 52.8532 27.0531 52.888 27.0815C52.9676 27.1382 53.0572 27.1744 53.1505 27.1876C53.4034 27.2389 53.65 27.3236 53.8852 27.44C54.0178 27.5087 54.1302 27.6186 54.2093 27.7569C54.2776 27.8844 54.3128 28.031 54.3109 28.18C54.3114 28.3604 54.2644 28.5369 54.1758 28.6871C54.0842 28.8437 53.9533 28.966 53.7999 29.0382C53.606 29.1258 53.3982 29.1673 53.1894 29.1601C52.7573 29.1601 52.4587 29.0663 52.2938 28.8785C52.1271 28.6861 52.0283 28.4316 52.0161 28.1629Z" fill="#008749"/>
<path d="M55.5969 27.6837C55.5969 27.2164 55.7118 26.8531 55.9415 26.5939C56.1713 26.3346 56.4922 26.2045 56.9042 26.2037C57.327 26.2037 57.6511 26.3313 57.8765 26.5865C58.102 26.8417 58.2161 27.1998 58.219 27.6606C58.2287 27.944 58.1775 28.2259 58.0699 28.4823C57.9727 28.6931 57.8223 28.8666 57.6378 28.9809C57.4205 29.108 57.1779 29.1698 56.9333 29.1601C56.6897 29.1699 56.4474 29.1169 56.2246 29.0053C56.0325 28.8984 55.8735 28.7284 55.7687 28.5176C55.6458 28.2622 55.5865 27.9741 55.5969 27.6837ZM56.3791 27.6837C56.3791 27.9731 56.4266 28.1803 56.5217 28.3055C56.6235 28.4251 56.7642 28.4927 56.9112 28.4927C57.0582 28.4927 57.1988 28.4251 57.3007 28.3055C57.3929 28.1811 57.439 27.9593 57.439 27.6399C57.4545 27.43 57.4032 27.2207 57.2942 27.0498C57.1955 26.9242 57.0517 26.8556 56.9031 26.8633C56.7571 26.8572 56.6168 26.9274 56.5228 27.0535C56.4234 27.1835 56.374 27.3936 56.3748 27.6837H56.3791Z" fill="#008749"/>
<path d="M58.5396 26.2501H59.3218V28.4043H60.5437V29.109H58.5396V26.2501Z" fill="#008749"/>
<path d="M60.812 26.2501H61.9713C62.1608 26.2423 62.3497 26.278 62.5266 26.3549C62.6637 26.4214 62.784 26.5253 62.8767 26.6572C62.9704 26.7931 63.0388 26.9491 63.0776 27.1156C63.1194 27.2963 63.1401 27.4824 63.1392 27.6691C63.1484 27.9104 63.1172 28.1515 63.0474 28.3799C62.9906 28.5407 62.9027 28.6852 62.7902 28.8029C62.6913 28.9106 62.5703 28.9889 62.438 29.0309C62.286 29.0792 62.1292 29.1055 61.9713 29.1089H60.812V26.2501ZM61.5942 26.8974V28.4591H61.7865C61.9054 28.4677 62.0245 28.4469 62.1355 28.3981C62.2098 28.3499 62.2671 28.2741 62.2976 28.1836C62.3441 28.0237 62.3638 27.8554 62.3559 27.6874C62.3559 27.3842 62.3123 27.1766 62.2252 27.0644C62.1089 26.9417 61.9516 26.8809 61.793 26.8974H61.5942Z" fill="#008749"/>
<path d="M66.5358 27.7179L67.0847 27.8569C67.0629 27.9504 67.0351 28.0421 67.0015 28.1312C66.9702 28.215 66.9341 28.2965 66.8934 28.375L67.1581 28.5798C67.1906 28.603 67.2316 28.631 67.2824 28.6639L66.9043 29.1516C66.8351 29.1101 66.7638 29.0626 66.6882 29.0077C66.6125 28.9528 66.5477 28.9065 66.4883 28.8675C66.3753 28.9532 66.2519 29.0201 66.122 29.0662C65.9344 29.1261 65.7401 29.1548 65.5451 29.1516C65.2069 29.1516 64.9563 29.0723 64.7888 28.9138C64.6326 28.7745 64.5417 28.5619 64.5425 28.3372C64.5441 28.1693 64.595 28.0068 64.6873 27.8751C64.8137 27.7073 64.9779 27.5809 65.1626 27.5094C65.0862 27.41 65.0222 27.2993 64.9725 27.1802C64.9387 27.0908 64.9211 26.9946 64.9206 26.8974C64.9167 26.7032 64.9924 26.5178 65.1259 26.3951C65.2628 26.2651 65.4709 26.1997 65.7504 26.1989C66.0345 26.1989 66.2441 26.261 66.377 26.3854C66.5024 26.4913 66.5768 26.6573 66.578 26.834C66.5778 26.9321 66.5567 27.0287 66.5164 27.1156C66.48 27.1985 66.4298 27.2726 66.3684 27.3339C66.2697 27.4238 66.1665 27.5072 66.0594 27.5838C66.1812 27.7214 66.3099 27.8508 66.4451 27.9715C66.4809 27.8896 66.5112 27.8048 66.5358 27.7179ZM65.476 27.9117C65.402 27.9638 65.3369 28.0302 65.2836 28.108C65.2525 28.1593 65.2359 28.2201 65.2361 28.2823C65.237 28.3804 65.2766 28.4729 65.3441 28.5347C65.4223 28.6117 65.5236 28.6518 65.6272 28.6468C65.7792 28.6366 65.9258 28.5792 66.0507 28.481C65.9016 28.3506 65.7104 28.1604 65.476 27.9117ZM65.7266 27.2168C65.8079 27.1717 65.8811 27.1101 65.9427 27.0352C65.9864 26.985 66.0128 26.9188 66.0172 26.8486C66.0181 26.789 65.9951 26.7321 65.9546 26.6938C65.9069 26.6489 65.8459 26.6262 65.7839 26.6304C65.7198 26.6275 65.6572 26.6523 65.6088 26.6999C65.5665 26.7418 65.5421 26.8022 65.5419 26.8657C65.5365 26.9523 65.6002 27.0632 65.7266 27.2168Z" fill="#008749"/>
<path d="M43.2923 33.4295H42.4031L42.28 33.9013H41.4805L42.4334 31.0425H43.2869L44.2387 33.9013H43.4187L43.2923 33.4295ZM43.1302 32.8102L42.8483 31.7837L42.5717 32.8102H43.1302Z" fill="#008749"/>
<path d="M44.3896 31.0424H45.8558C46.0593 31.027 46.2604 31.1003 46.4176 31.2472C46.5455 31.3758 46.6173 31.5611 46.6142 31.7544C46.6173 31.9138 46.5672 32.0687 46.4737 32.1884C46.3992 32.2783 46.3049 32.3443 46.2004 32.3798C46.3558 32.4116 46.4974 32.5013 46.6023 32.6346C46.6916 32.7637 46.7376 32.9244 46.732 33.0881C46.7334 33.2282 46.7017 33.3663 46.6401 33.488C46.5798 33.6046 46.4934 33.7013 46.3895 33.7684C46.2965 33.8202 46.1957 33.852 46.0924 33.8622C45.9163 33.8878 45.7985 33.9012 45.7412 33.9012H44.3896V31.0424ZM45.1794 32.1628H45.5197C45.6094 32.1731 45.6995 32.1481 45.7747 32.0921C45.8248 32.0389 45.8513 31.9634 45.8471 31.886C45.8505 31.812 45.8239 31.7402 45.7747 31.691C45.701 31.6364 45.6129 31.6119 45.5251 31.6215H45.1794V32.1628ZM45.1794 33.2868H45.5792C45.6798 33.2981 45.7807 33.2692 45.8644 33.2051C45.9197 33.1508 45.95 33.0708 45.9465 32.9881C45.9489 32.9095 45.9185 32.8341 45.8644 32.7845C45.7788 32.7237 45.6777 32.6967 45.577 32.7077H45.1794V33.2868Z" fill="#008749"/>
<path d="M46.9439 32.4737C46.9439 32.0063 47.0592 31.643 47.2897 31.3838C47.5201 31.1245 47.841 30.9945 48.2523 30.9937C48.6737 30.9937 48.9978 31.1213 49.2247 31.3765C49.4526 31.6325 49.5661 31.986 49.5661 32.4505C49.5756 32.7339 49.5244 33.0158 49.417 33.2722C49.3198 33.483 49.1694 33.6565 48.9848 33.7708C48.7676 33.8981 48.525 33.9598 48.2804 33.95C48.0368 33.9592 47.7946 33.9063 47.5716 33.7952C47.3795 33.6883 47.2206 33.5183 47.1157 33.3075C46.9934 33.0519 46.9341 32.764 46.9439 32.4737ZM47.7261 32.4737C47.7261 32.763 47.7737 32.9702 47.8688 33.0954C47.9706 33.215 48.1113 33.2826 48.2582 33.2826C48.4052 33.2826 48.5459 33.215 48.6477 33.0954C48.7428 32.9776 48.7903 32.7585 48.7903 32.4383C48.8059 32.2284 48.7546 32.0192 48.6456 31.8483C48.5468 31.7226 48.4031 31.6541 48.2545 31.6617C48.1085 31.6559 47.9683 31.726 47.8742 31.8519C47.7748 31.9775 47.7261 32.186 47.7261 32.4773V32.4737Z" fill="#008749"/>
<path d="M49.4902 31.0425H50.3081L50.8786 33.0991L51.4414 31.0425H52.2355L51.2956 33.9013H50.4464L49.4902 31.0425Z" fill="#008749"/>
<path d="M52.3911 31.0425H54.4893V31.652H53.1755V32.1068H54.3942V32.6895H53.1755V33.254H54.5271V33.9013H52.3911V31.0425Z" fill="#008749"/>
<path d="M55.8321 32.4737C55.8321 32.0063 55.9474 31.643 56.1778 31.3838C56.4083 31.1245 56.7292 30.9945 57.1405 30.9937C57.5618 30.9937 57.886 31.1213 58.1128 31.3765C58.3408 31.6325 58.4553 31.986 58.4553 32.4505C58.4646 32.734 58.413 33.0159 58.3052 33.2722C58.2083 33.4832 58.0578 33.6569 57.873 33.7708C57.6562 33.898 57.4139 33.9597 57.1697 33.95C56.9257 33.9594 56.6831 33.9065 56.4598 33.7952C56.2679 33.6879 56.1091 33.518 56.0039 33.3075C55.8816 33.0519 55.8222 32.764 55.8321 32.4737ZM56.6154 32.4737C56.6154 32.7626 56.6619 32.9698 56.7569 33.0954C56.8588 33.215 56.9994 33.2826 57.1464 33.2826C57.2934 33.2826 57.4341 33.215 57.5359 33.0954C57.6274 32.9727 57.6735 32.7512 57.6742 32.431C57.6898 32.2211 57.6384 32.0119 57.5294 31.8409C57.4308 31.7152 57.287 31.6466 57.1383 31.6544C56.9924 31.6485 56.8522 31.7187 56.758 31.8446C56.6629 31.9754 56.6154 32.1864 56.6154 32.4773V32.4737Z" fill="#008749"/>
<path d="M58.7852 31.0425H59.5155L60.4695 32.6273V31.0425H61.2074V33.9013H60.4695L59.5209 32.3311V33.9013H58.7852V31.0425Z" fill="#008749"/>
<path d="M61.6289 31.0425H62.4122V33.1967H63.6341V33.9013H61.6289V31.0425Z" fill="#008749"/>
<path d="M63.3618 31.0425H64.2261L64.7361 32.0068L65.2482 31.0425H66.1125L65.1272 32.7041V33.9013H64.3482V32.7041L63.3618 31.0425Z" fill="#008749"/>
<path d="M71.6237 2.71497H69.895V33.85H71.6237V2.71497Z" fill="#008849"/>
<path d="M42.8091 10.5795L45.8266 13.4201C45.8266 13.4201 47.982 10.4198 49.7788 11.2257C51.5755 12.0315 50.7846 14.1515 50.7846 14.1515C50.7846 14.1515 50.7133 14.5575 49.4201 15.6925C48.1268 16.8275 42.8091 20.8823 42.8091 20.8823V24.5299H55.8819V20.7153H48.7729C48.7729 20.7153 54.8804 17.2286 55.3839 14.4709C55.3839 14.4709 56.9645 9.2007 51.5755 7.25498C51.5755 7.25498 46.5451 5.5531 42.8091 10.5795Z" fill="#008848"/>
<path d="M65.2273 7.33667V24.5262H60.8441V11.5536L57.8989 12.3643L56.9644 8.63381L61.4199 7.33667H65.2273Z" fill="#008848"/>
</g>
<defs>
<linearGradient id="paint0_linear_8472_101218" x1="24.5" y1="14" x2="24.5" y2="34" gradientUnits="userSpaceOnUse">
<stop stop-color="#008646"/>
<stop offset="1" stop-color="#008849"/>
</linearGradient>
<linearGradient id="paint1_linear_8472_101218" x1="13.5" y1="0" x2="13.5" y2="4" gradientUnits="userSpaceOnUse">
<stop stop-color="#008646"/>
<stop offset="1" stop-color="#008849"/>
</linearGradient>
<linearGradient id="paint2_linear_8472_101218" x1="7.5" y1="14" x2="7.5" y2="34" gradientUnits="userSpaceOnUse">
<stop stop-color="#008646"/>
<stop offset="1" stop-color="#008849"/>
</linearGradient>
<linearGradient id="paint3_linear_8472_101218" x1="23" y1="15" x2="23" y2="25" gradientUnits="userSpaceOnUse">
<stop stop-color="#008646"/>
<stop offset="1" stop-color="#008849"/>
</linearGradient>
<linearGradient id="paint4_linear_8472_101218" x1="9" y1="15" x2="9" y2="25" gradientUnits="userSpaceOnUse">
<stop stop-color="#008646"/>
<stop offset="1" stop-color="#008849"/>
</linearGradient>
<linearGradient id="paint5_linear_8472_101218" x1="28" y1="15" x2="28" y2="25" gradientUnits="userSpaceOnUse">
<stop stop-color="#008646"/>
<stop offset="1" stop-color="#008849"/>
</linearGradient>
<linearGradient id="paint6_linear_8472_101218" x1="26" y1="15" x2="26" y2="25" gradientUnits="userSpaceOnUse">
<stop stop-color="#008646"/>
<stop offset="1" stop-color="#008849"/>
</linearGradient>
<linearGradient id="paint7_linear_8472_101218" x1="4" y1="15" x2="4" y2="25" gradientUnits="userSpaceOnUse">
<stop stop-color="#008646"/>
<stop offset="1" stop-color="#008849"/>
</linearGradient>
<linearGradient id="paint8_linear_8472_101218" x1="6" y1="15" x2="6" y2="25" gradientUnits="userSpaceOnUse">
<stop stop-color="#008646"/>
<stop offset="1" stop-color="#008849"/>
</linearGradient>
<linearGradient id="paint9_linear_8472_101218" x1="23.5" y1="2" x2="23.5" y2="6" gradientUnits="userSpaceOnUse">
<stop stop-color="#008646"/>
<stop offset="1" stop-color="#008849"/>
</linearGradient>
<linearGradient id="paint10_linear_8472_101218" x1="27.5" y1="6" x2="27.5" y2="11" gradientUnits="userSpaceOnUse">
<stop stop-color="#008646"/>
<stop offset="1" stop-color="#008849"/>
</linearGradient>
<linearGradient id="paint11_linear_8472_101218" x1="9" y1="2" x2="9" y2="7" gradientUnits="userSpaceOnUse">
<stop stop-color="#008646"/>
<stop offset="1" stop-color="#008849"/>
</linearGradient>
<linearGradient id="paint12_linear_8472_101218" x1="4" y1="6" x2="4" y2="11" gradientUnits="userSpaceOnUse">
<stop stop-color="#008646"/>
<stop offset="1" stop-color="#008849"/>
</linearGradient>
<linearGradient id="paint13_linear_8472_101218" x1="18.5" y1="0" x2="18.5" y2="5" gradientUnits="userSpaceOnUse">
<stop stop-color="#008646"/>
<stop offset="1" stop-color="#008849"/>
</linearGradient>
<clipPath id="clip0_8472_101218">
<rect width="152" height="34" fill="white"/>
</clipPath>
</defs>
</svg>
