<svg xmlns="http://www.w3.org/2000/svg" viewBox="0 0 47.51 47.51"><defs><style>.cls-1{fill:#fff;}.cls-2{fill:#b12233;}.cls-3{fill:#3c3b6d;}</style></defs><g id="Layer_2" data-name="Layer 2"><g id="USA"><rect class="cls-1" y="32.89" width="47.51" height="3.65"/><rect class="cls-2" y="29.24" width="47.51" height="3.66"/><rect class="cls-1" y="25.58" width="47.51" height="3.65"/><path class="cls-2" d="M47.51,36.55V38a9.25,9.25,0,0,1-.25,2.19H.26A8.76,8.76,0,0,1,0,38V36.55Z"/><path class="cls-2" d="M45.5,43.86A9.5,9.5,0,0,1,38,47.51H9.5A9.5,9.5,0,0,1,2,43.86Z"/><path class="cls-1" d="M47.26,40.2a9.43,9.43,0,0,1-1.76,3.66H2A9.28,9.28,0,0,1,.26,40.2Z"/><path class="cls-1" d="M47.26,7.31H.26a9,9,0,0,1,.25-.89.14.14,0,0,0,0-.06A9.4,9.4,0,0,1,1.82,3.91h0A1.44,1.44,0,0,1,2,3.65H45.49A9.31,9.31,0,0,1,47.26,7.31Z"/><path class="cls-2" d="M45.49,3.65H2A9.06,9.06,0,0,1,3.38,2.24,9.43,9.43,0,0,1,9.5,0H38A9.47,9.47,0,0,1,45.49,3.65Z"/><path class="cls-2" d="M47.51,9.5V11H0V9.5A9.31,9.31,0,0,1,.26,7.31h47A9.87,9.87,0,0,1,47.51,9.5Z"/><rect class="cls-2" y="14.62" width="47.51" height="3.66"/><rect class="cls-1" y="10.96" width="47.51" height="3.65"/><rect class="cls-1" y="18.27" width="47.51" height="3.65"/><rect class="cls-2" y="21.93" width="47.51" height="3.65"/><path class="cls-3" d="M23.75,0V25.58H0V9.5A9.31,9.31,0,0,1,.26,7.31a9,9,0,0,1,.25-.89.14.14,0,0,0,0-.06A9.4,9.4,0,0,1,1.82,3.91h0A1.44,1.44,0,0,1,2,3.65,9.06,9.06,0,0,1,3.38,2.24,9.43,9.43,0,0,1,9.5,0Z"/><polygon class="cls-1" points="20.74 1.21 21.08 2.24 22.16 2.24 21.29 2.88 21.62 3.91 20.74 3.27 19.87 3.91 20.2 2.88 19.33 2.24 20.41 2.24 20.74 1.21"/><polygon class="cls-1" points="14.73 1.21 15.06 2.24 16.14 2.24 15.27 2.88 15.6 3.91 14.73 3.27 13.85 3.91 14.19 2.88 13.31 2.24 14.39 2.24 14.73 1.21"/><polygon class="cls-1" points="8.71 1.21 9.05 2.24 10.13 2.24 9.25 2.88 9.59 3.91 8.71 3.27 7.84 3.91 8.17 2.88 7.3 2.24 8.38 2.24 8.71 1.21"/><path class="cls-1" d="M3.49,3.65l.08.26-.34-.26L2.7,3.27l-.53.38-.33.25A1.44,1.44,0,0,1,2,3.65,9.06,9.06,0,0,1,3.38,2.24h.73l-.87.64Z"/><polygon class="cls-1" points="20.74 6.33 21.08 7.36 22.16 7.36 21.29 7.99 21.62 9.02 20.74 8.39 19.87 9.02 20.2 7.99 19.33 7.36 20.41 7.36 20.74 6.33"/><polygon class="cls-1" points="14.73 6.33 15.06 7.36 16.14 7.36 15.27 7.99 15.6 9.02 14.73 8.39 13.85 9.02 14.19 7.99 13.31 7.36 14.39 7.36 14.73 6.33"/><polygon class="cls-1" points="8.71 6.33 9.05 7.36 10.13 7.36 9.25 7.99 9.59 9.02 8.71 8.39 7.84 9.02 8.17 7.99 7.3 7.36 8.38 7.36 8.71 6.33"/><polygon class="cls-1" points="2.7 6.33 3.03 7.36 4.12 7.36 3.24 7.99 3.57 9.02 2.7 8.39 1.82 9.02 2.16 7.99 1.28 7.36 2.37 7.36 2.7 6.33"/><polygon class="cls-1" points="20.74 11.44 21.08 12.47 22.16 12.47 21.29 13.11 21.62 14.14 20.74 13.5 19.87 14.14 20.2 13.11 19.33 12.47 20.41 12.47 20.74 11.44"/><polygon class="cls-1" points="14.73 11.44 15.06 12.47 16.14 12.47 15.27 13.11 15.6 14.14 14.73 13.5 13.85 14.14 14.19 13.11 13.31 12.47 14.39 12.47 14.73 11.44"/><polygon class="cls-1" points="8.71 11.44 9.05 12.47 10.13 12.47 9.25 13.11 9.59 14.14 8.71 13.5 7.84 14.14 8.17 13.11 7.3 12.47 8.38 12.47 8.71 11.44"/><polygon class="cls-1" points="2.7 11.44 3.03 12.47 4.12 12.47 3.24 13.11 3.57 14.14 2.7 13.5 1.82 14.14 2.16 13.11 1.28 12.47 2.37 12.47 2.7 11.44"/><polygon class="cls-1" points="20.74 16.56 21.08 17.59 22.16 17.59 21.29 18.22 21.62 19.25 20.74 18.62 19.87 19.25 20.2 18.22 19.33 17.59 20.41 17.59 20.74 16.56"/><polygon class="cls-1" points="14.73 16.56 15.06 17.59 16.14 17.59 15.27 18.22 15.6 19.25 14.73 18.62 13.85 19.25 14.19 18.22 13.31 17.59 14.39 17.59 14.73 16.56"/><polygon class="cls-1" points="8.71 16.56 9.05 17.59 10.13 17.59 9.25 18.22 9.59 19.25 8.71 18.62 7.84 19.25 8.17 18.22 7.3 17.59 8.38 17.59 8.71 16.56"/><polygon class="cls-1" points="2.7 16.56 3.03 17.59 4.12 17.59 3.24 18.22 3.57 19.25 2.7 18.62 1.82 19.25 2.16 18.22 1.28 17.59 2.37 17.59 2.7 16.56"/><polygon class="cls-1" points="20.74 21.67 21.08 22.7 22.16 22.7 21.29 23.34 21.62 24.37 20.74 23.73 19.87 24.37 20.2 23.34 19.33 22.7 20.41 22.7 20.74 21.67"/><polygon class="cls-1" points="14.73 21.67 15.06 22.7 16.14 22.7 15.27 23.34 15.6 24.37 14.73 23.73 13.85 24.37 14.19 23.34 13.31 22.7 14.39 22.7 14.73 21.67"/><polygon class="cls-1" points="8.71 21.67 9.05 22.7 10.13 22.7 9.25 23.34 9.59 24.37 8.71 23.73 7.84 24.37 8.17 23.34 7.3 22.7 8.38 22.7 8.71 21.67"/><polygon class="cls-1" points="2.7 21.67 3.03 22.7 4.12 22.7 3.24 23.34 3.57 24.37 2.7 23.73 1.82 24.37 2.16 23.34 1.28 22.7 2.37 22.7 2.7 21.67"/><polygon class="cls-1" points="17.74 19.12 18.07 20.14 19.15 20.14 18.28 20.78 18.61 21.81 17.74 21.17 16.86 21.81 17.2 20.78 16.32 20.14 17.4 20.14 17.74 19.12"/><polygon class="cls-1" points="11.72 19.12 12.06 20.14 13.14 20.14 12.26 20.78 12.6 21.81 11.72 21.17 10.85 21.81 11.18 20.78 10.31 20.14 11.39 20.14 11.72 19.12"/><polygon class="cls-1" points="5.71 19.12 6.04 20.14 7.12 20.14 6.25 20.78 6.58 21.81 5.71 21.17 4.83 21.81 5.17 20.78 4.29 20.14 5.37 20.14 5.71 19.12"/><polygon class="cls-1" points="0.23 20.78 0.56 21.81 0 21.39 0 20.06 0.03 20.15 1.11 20.15 0.23 20.78"/><polygon class="cls-1" points="17.74 14 18.07 15.03 19.15 15.03 18.28 15.67 18.61 16.69 17.74 16.06 16.86 16.69 17.2 15.67 16.32 15.03 17.4 15.03 17.74 14"/><polygon class="cls-1" points="11.72 14 12.06 15.03 13.14 15.03 12.26 15.67 12.6 16.69 11.72 16.06 10.85 16.69 11.18 15.67 10.31 15.03 11.39 15.03 11.72 14"/><polygon class="cls-1" points="5.71 14 6.04 15.03 7.12 15.03 6.25 15.67 6.58 16.69 5.71 16.06 4.83 16.69 5.17 15.67 4.29 15.03 5.37 15.03 5.71 14"/><polygon class="cls-1" points="0.23 15.67 0.56 16.69 0 16.28 0 14.94 0.03 15.03 1.11 15.03 0.23 15.67"/><polygon class="cls-1" points="17.74 8.89 18.07 9.91 19.15 9.91 18.28 10.55 18.61 11.58 17.74 10.94 16.86 11.58 17.2 10.55 16.32 9.91 17.4 9.91 17.74 8.89"/><polygon class="cls-1" points="11.72 8.89 12.06 9.91 13.14 9.91 12.26 10.55 12.6 11.58 11.72 10.94 10.85 11.58 11.18 10.55 10.31 9.91 11.39 9.91 11.72 8.89"/><polygon class="cls-1" points="5.71 8.89 6.04 9.91 7.12 9.91 6.25 10.55 6.58 11.58 5.71 10.94 4.83 11.58 5.17 10.55 4.29 9.91 5.37 9.91 5.71 8.89"/><polygon class="cls-1" points="0.36 10.96 0.56 11.58 0 11.17 0 9.83 0.03 9.92 1.11 9.92 0.23 10.55 0.36 10.96"/><polygon class="cls-1" points="17.74 3.77 18.07 4.8 19.15 4.8 18.28 5.43 18.61 6.46 17.74 5.83 16.86 6.46 17.2 5.43 16.32 4.8 17.4 4.8 17.74 3.77"/><polygon class="cls-1" points="11.72 3.77 12.06 4.8 13.14 4.8 12.26 5.43 12.6 6.46 11.72 5.83 10.85 6.46 11.18 5.43 10.31 4.8 11.39 4.8 11.72 3.77"/><polygon class="cls-1" points="5.71 3.77 6.04 4.8 7.12 4.8 6.25 5.43 6.58 6.46 5.71 5.83 4.83 6.46 5.17 5.43 4.29 4.8 5.37 4.8 5.71 3.77"/><path class="cls-1" d="M.56,6.46l-.05,0a.14.14,0,0,0,0-.06Z"/></g></g></svg>